<svg xmlns="http://www.w3.org/2000/svg" xmlns:xlink="http://www.w3.org/1999/xlink" viewBox="0 0 1057.12 152.34"><defs><style>.cls-1{opacity:0.4;}.cls-2{fill:#9a4993;}.cls-3{fill:#6a1577;}.cls-4{fill:#813084;}.cls-39,.cls-41,.cls-5{fill:#fff;}.cls-6{fill:url(#linear-gradient);}.cls-7{fill:url(#linear-gradient-2);}.cls-8{fill:#14559a;}.cls-9{fill:url(#linear-gradient-3);}.cls-10{fill:#3092c4;}.cls-11{fill:#1969bc;}.cls-12{fill:url(#linear-gradient-4);}.cls-13{fill:url(#linear-gradient-5);}.cls-14{fill:url(#linear-gradient-6);}.cls-15{fill:#2b74b1;}.cls-16{fill:#125a9e;}.cls-17{fill:url(#linear-gradient-7);}.cls-18{fill:url(#linear-gradient-8);}.cls-19{fill:#0d82ca;}.cls-20{fill:url(#linear-gradient-9);}.cls-21{fill:#127bca;}.cls-22{fill:url(#linear-gradient-10);}.cls-23{fill:url(#linear-gradient-11);}.cls-24{fill:#05a1e6;}.cls-25{fill:url(#linear-gradient-12);}.cls-26{fill:url(#linear-gradient-13);}.cls-27{fill:url(#linear-gradient-14);}.cls-28{fill:#079ae1;}.cls-29{fill:#1e5cb3;}.cls-30{fill:#1d60b5;}.cls-31{fill:#175fab;}.cls-32{fill:url(#linear-gradient-15);}.cls-33{fill:#7dcbec;}.cls-34{fill:#5ec5ed;}.cls-35{fill:url(#linear-gradient-16);}.cls-36{fill:url(#linear-gradient-17);}.cls-37{fill:url(#linear-gradient-18);}.cls-38{fill:#b22929;stroke:#fff;stroke-miterlimit:10;stroke-width:0.5px;}.cls-39{font-size:45.01px;}.cls-39,.cls-41{font-family:RobotoSlab-Bold, Roboto Slab;font-weight:700;}.cls-40{fill:#61dafb;}.cls-41{font-size:45.26px;}.cls-42{fill:#e44d26;}.cls-43{fill:#f16529;}.cls-44{fill:#ebebeb;}.cls-45{fill:#264de4;}.cls-46{fill:#2965f1;}.cls-47{fill:#f7df1e;}</style><linearGradient id="linear-gradient" x1="-612.13" y1="-2241.04" x2="-611.64" y2="-2241.04" gradientTransform="matrix(0.39, 149.74, -149.74, 0.39, -335115.77, 92539.56)" gradientUnits="userSpaceOnUse"><stop offset="0" stop-color="#0994dc"/><stop offset="0.35" stop-color="#66cef5"/><stop offset="0.85" stop-color="#127bca"/><stop offset="1" stop-color="#127bca"/></linearGradient><linearGradient id="linear-gradient-2" x1="-612.56" y1="-2240.9" x2="-612.07" y2="-2240.9" gradientTransform="translate(-343636.53 94961.74) rotate(89.85) scale(153.55)" gradientUnits="userSpaceOnUse"><stop offset="0" stop-color="#0e76bc"/><stop offset="0.36" stop-color="#36aee8"/><stop offset="0.85" stop-color="#00adef"/><stop offset="1" stop-color="#00adef"/></linearGradient><linearGradient id="linear-gradient-3" x1="-651.14" y1="-2230.1" x2="-650.65" y2="-2230.1" gradientTransform="matrix(-0.32, -122.18, 122.18, -0.32, 272487.33, -80205.69)" gradientUnits="userSpaceOnUse"><stop offset="0" stop-color="#1c63b7"/><stop offset="0.5" stop-color="#33bdf2"/><stop offset="1" stop-color="#33bdf2" stop-opacity="0.42"/></linearGradient><linearGradient id="linear-gradient-4" x1="-613.15" y1="-2240.66" x2="-612.65" y2="-2240.66" gradientTransform="matrix(0.42, 159.43, -159.43, 0.42, -356739.53, 98679.72)" gradientUnits="userSpaceOnUse"><stop offset="0" stop-color="#166ab8"/><stop offset="0.4" stop-color="#36aee8"/><stop offset="0.85" stop-color="#0798dd"/><stop offset="1" stop-color="#0798dd"/></linearGradient><linearGradient id="linear-gradient-5" x1="-614.15" y1="-2240.42" x2="-613.65" y2="-2240.42" gradientTransform="matrix(0.44, 169.53, -169.53, 0.44, -379325.8, 105103.81)" gradientUnits="userSpaceOnUse"><stop offset="0" stop-color="#124379"/><stop offset="0.39" stop-color="#1487cb"/><stop offset="0.78" stop-color="#165197"/><stop offset="1" stop-color="#165197"/></linearGradient><linearGradient id="linear-gradient-6" x1="520.25" y1="486.9" x2="523.19" y2="486.9" gradientTransform="translate(-1924.97 -1939.65) rotate(-0.15) scale(4.04)" gradientUnits="userSpaceOnUse"><stop offset="0" stop-color="#33bdf2" stop-opacity="0.7"/><stop offset="1" stop-color="#1dacd8"/></linearGradient><linearGradient id="linear-gradient-7" x1="-651.72" y1="-2230.34" x2="-651.22" y2="-2230.34" gradientTransform="matrix(-0.31, -119.02, 119.02, -0.31, 265518.06, -78200.01)" gradientUnits="userSpaceOnUse"><stop offset="0" stop-color="#136ab4"/><stop offset="0.6" stop-color="#59caf5" stop-opacity="0.55"/><stop offset="1" stop-color="#59caf5" stop-opacity="0.23"/></linearGradient><linearGradient id="linear-gradient-8" x1="509.82" y1="490.38" x2="520.73" y2="490.38" gradientTransform="translate(-1924.97 -1939.65) rotate(-0.15) scale(4.04)" gradientUnits="userSpaceOnUse"><stop offset="0" stop-color="#05a1e6" stop-opacity="0.25"/><stop offset="1" stop-color="#05a1e6"/></linearGradient><linearGradient id="linear-gradient-9" x1="-651.2" y1="-2229.57" x2="-650.71" y2="-2229.57" gradientTransform="translate(271662.91 -80006.9) rotate(-90.15) scale(121.87)" gradientUnits="userSpaceOnUse"><stop offset="0" stop-color="#318ed5"/><stop offset="1" stop-color="#38a7e4"/></linearGradient><linearGradient id="linear-gradient-10" x1="-651.81" y1="-2229.41" x2="-651.31" y2="-2229.41" gradientTransform="translate(264062.2 -77841.83) rotate(-90.15) scale(118.46)" gradientUnits="userSpaceOnUse"><stop offset="0" stop-color="#05a1e6"/><stop offset="1" stop-color="#05a1e6" stop-opacity="0.55"/></linearGradient><linearGradient id="linear-gradient-11" x1="-655.8" y1="-2228.23" x2="-655.31" y2="-2228.23" gradientTransform="translate(223045.18 -66163.62) rotate(-90.15) scale(100.1)" gradientUnits="userSpaceOnUse"><stop offset="0" stop-color="#1959a6"/><stop offset="0.5" stop-color="#05a1e6"/><stop offset="0.92" stop-color="#7ec5ea"/><stop offset="1" stop-color="#7ec5ea"/></linearGradient><linearGradient id="linear-gradient-12" x1="-654.32" y1="-2233.17" x2="-653.83" y2="-2233.17" gradientTransform="translate(229733.36 -114295.36) rotate(-100.15) scale(110.21)" gradientUnits="userSpaceOnUse"><stop offset="0" stop-color="#165096"/><stop offset="1" stop-color="#0d82ca"/></linearGradient><linearGradient id="linear-gradient-13" x1="-676.23" y1="-2223.86" x2="-675.73" y2="-2223.86" gradientTransform="matrix(-0.15, -56.72, 56.72, -0.15, 126299.8, -38654.77)" gradientUnits="userSpaceOnUse"><stop offset="0" stop-color="#05a1e6"/><stop offset="0.87" stop-color="#0495d6"/><stop offset="1" stop-color="#0495d6"/></linearGradient><linearGradient id="linear-gradient-14" x1="-611.04" y1="-2244.57" x2="-610.55" y2="-2244.57" gradientTransform="matrix(-22.72, 130.86, -130.86, -22.72, -307324.4, 28960.46)" gradientUnits="userSpaceOnUse"><stop offset="0" stop-color="#38a7e4" stop-opacity="0.33"/><stop offset="0.96" stop-color="#0e88d3"/><stop offset="1" stop-color="#0e88d3"/></linearGradient><linearGradient id="linear-gradient-15" x1="-608.39" y1="-2241.64" x2="-607.9" y2="-2241.64" gradientTransform="translate(-276923.96 76012.15) rotate(89.85) scale(123.74)" gradientUnits="userSpaceOnUse"><stop offset="0" stop-color="#168cd4"/><stop offset="0.5" stop-color="#1c87cc"/><stop offset="1" stop-color="#154b8d"/></linearGradient><linearGradient id="linear-gradient-16" x1="1125.46" y1="-2201.34" x2="1125.95" y2="-2201.34" gradientTransform="matrix(144.04, 59.3, 59.3, -144.04, -31387.35, -383815.54)" gradientUnits="userSpaceOnUse"><stop offset="0" stop-color="#97d6ee"/><stop offset="0.7" stop-color="#55c1ea"/><stop offset="1" stop-color="#55c1ea"/></linearGradient><linearGradient id="linear-gradient-17" x1="1111.15" y1="-2209.28" x2="1111.65" y2="-2209.28" gradientTransform="matrix(113.51, -51.81, -51.81, -113.51, -240390.42, -193189.15)" gradientUnits="userSpaceOnUse"><stop offset="0" stop-color="#7accec"/><stop offset="1" stop-color="#3fb7ed"/></linearGradient><linearGradient id="linear-gradient-18" x1="-607.94" y1="-2241.83" x2="-607.45" y2="-2241.83" gradientTransform="translate(-270885.19 74296.38) rotate(89.85) scale(121.03)" gradientUnits="userSpaceOnUse"><stop offset="0" stop-color="#1da7e7"/><stop offset="1" stop-color="#37abe7" stop-opacity="0"/></linearGradient></defs><title>Asset 21</title><g id="Layer_2" data-name="Layer 2"><g id="Layer_1-2" data-name="Layer 1"><g id="Text_Container" data-name="Text Container"><g id="skills"><g class="cls-1"><path class="cls-2" d="M110,43a10.68,10.68,0,0,0-1.36-5.49,10.29,10.29,0,0,0-4-3.86Q82.69,21,60.7,8.35A10.81,10.81,0,0,0,49,8.45C43.19,11.87,14,28.6,5.32,33.65A10.13,10.13,0,0,0,0,43V94a11.07,11.07,0,0,0,1.29,5.39,10.6,10.6,0,0,0,4,4c8.7,5,37.87,21.74,43.69,25.2a10.77,10.77,0,0,0,11.69.1q21.94-12.7,43.93-25.3a10.2,10.2,0,0,0,4-4A11.07,11.07,0,0,0,110,94V43"/><path class="cls-3" d="M55.11,68.3l-53.89,31a10.53,10.53,0,0,0,4,4c8.71,5.05,37.87,21.75,43.69,25.2a10.73,10.73,0,0,0,11.69.1q21.95-12.69,43.93-25.3a10.13,10.13,0,0,0,4-4l-53.48-31"/><path class="cls-3" d="M39.16,77.48a18.16,18.16,0,0,0,31.63-.1L55.11,68.3l-16,9.18"/><path class="cls-4" d="M110,43a10.68,10.68,0,0,0-1.36-5.49L55.11,68.3l53.55,31A11,11,0,0,0,110,93.94V43"/><path class="cls-5" d="M70.79,77.38a18.2,18.2,0,1,1-.13-18l15.88-9.15a36.47,36.47,0,1,0,.14,36.35L70.79,77.38"/><rect class="cls-5" x="85.01" y="58.34" width="3.62" height="22.74"/><rect class="cls-5" x="95.28" y="58.34" width="3.62" height="22.74"/><rect class="cls-5" x="82.1" y="62.78" width="19.75" height="3.62"/><rect class="cls-5" x="82.1" y="73.01" width="19.75" height="3.62"/><path class="cls-5" d="M175,95.44h-2.22l0-12.69c0-1,.06-2.22.17-3.66h-.05a11.19,11.19,0,0,1-.56,1.83l-6.4,14.54h-1.08l-6.5-14.4a11.23,11.23,0,0,1-.57-1.93h-.05c.07.76.11,2,.12,3.69l0,12.66h-2.14l0-18.9h2.93l5.83,13.16A17.83,17.83,0,0,1,165.3,92h.09c.38-1,.68-1.81.9-2.32l5.89-13.13H175l0,18.9Zm6.82,0h-2.15l0-13.49h2.16Zm.33-18.34a1.42,1.42,0,0,1-1.42,1.42,1.41,1.41,0,0,1-1-.39,1.39,1.39,0,0,1-.41-1,1.31,1.31,0,0,1,.41-1,1.35,1.35,0,0,1,1-.41,1.4,1.4,0,0,1,1.43,1.39M195.3,94.76a7,7,0,0,1-3.7,1,6.08,6.08,0,0,1-4.68-1.91A6.8,6.8,0,0,1,185.17,89a7.53,7.53,0,0,1,1.89-5.37,6.64,6.64,0,0,1,5.11-2.05,6.89,6.89,0,0,1,3.13.67v2.22a5.52,5.52,0,0,0-3.22-1,4.33,4.33,0,0,0-3.35,1.45,5.54,5.54,0,0,0-1.35,3.93,5.31,5.31,0,0,0,1.25,3.72A4.33,4.33,0,0,0,192,93.88a5.5,5.5,0,0,0,3.31-1.17v2.05Zm10.28-10.71a2.89,2.89,0,0,0-3.86.76,5.92,5.92,0,0,0-1,3.68l0,6.88h-2.16l0-13.49h2.17v2.79h.06a4.72,4.72,0,0,1,1.45-2.29,3.22,3.22,0,0,1,2.07-.74,3.54,3.54,0,0,1,1.29.18v2.24Zm12,4.55a5.93,5.93,0,0,0-1.18-3.95,4,4,0,0,0-3.18-1.29A4.17,4.17,0,0,0,210,84.68a5.77,5.77,0,0,0-1.26,4A5.43,5.43,0,0,0,210,92.46a4.19,4.19,0,0,0,3.28,1.36,4,4,0,0,0,3.25-1.39,6,6,0,0,0,1.09-3.83m2.21-.08A7.25,7.25,0,0,1,218,93.7a6.42,6.42,0,0,1-4.9,2,6.22,6.22,0,0,1-4.83-1.94,7,7,0,0,1-1.75-5,7.25,7.25,0,0,1,2-5.45,6.72,6.72,0,0,1,4.9-1.8,6.05,6.05,0,0,1,4.72,1.86,7.37,7.37,0,0,1,1.7,5.15m10.72,3.16a3.45,3.45,0,0,1-1.23,2.75,5.43,5.43,0,0,1-3.7,1.2,6.57,6.57,0,0,1-3.35-.81V92.5a5.38,5.38,0,0,0,3.51,1.28c1.71,0,2.56-.63,2.56-1.89a1.68,1.68,0,0,0-.57-1.3,9.12,9.12,0,0,0-2.22-1.23,7,7,0,0,1-2.41-1.53,3.46,3.46,0,0,1-.87-2.43,3.52,3.52,0,0,1,1.33-2.8A5.14,5.14,0,0,1,227,81.47a6.46,6.46,0,0,1,2.89.63v2.17a5.13,5.13,0,0,0-3.07-1,2.64,2.64,0,0,0-1.72.53,1.69,1.69,0,0,0-.64,1.36,1.82,1.82,0,0,0,.54,1.4,7.53,7.53,0,0,0,2,1.11,7.91,7.91,0,0,1,2.5,1.49,3.3,3.3,0,0,1,1,2.47m13.2-3.15a6,6,0,0,0-1.18-4,4,4,0,0,0-3.18-1.29,4.17,4.17,0,0,0-3.23,1.32,5.73,5.73,0,0,0-1.26,4,5.47,5.47,0,0,0,1.22,3.78,4.23,4.23,0,0,0,3.29,1.36,3.93,3.93,0,0,0,3.25-1.39,5.94,5.94,0,0,0,1.09-3.83m2.22-.08a7.35,7.35,0,0,1-1.81,5.18,6.37,6.37,0,0,1-4.9,2,6.18,6.18,0,0,1-4.83-1.94,7,7,0,0,1-1.75-5,7.21,7.21,0,0,1,2-5.44,6.73,6.73,0,0,1,4.9-1.81,6.09,6.09,0,0,1,4.72,1.86A7.47,7.47,0,0,1,246,88.45m9.49-11.31a3,3,0,0,0-1.44-.35c-1.51,0-2.26,1-2.26,2.87v2.08h3.16v1.83h-3.17l0,11.66h-2.17l0-11.66h-2.29V81.75h2.3V79.56a4.51,4.51,0,0,1,1.37-3.5A4.13,4.13,0,0,1,253.9,75a4,4,0,0,1,1.56.23ZM264,95.07a4.1,4.1,0,0,1-2,.44q-3.54,0-3.54-4l0-8h-2.32V81.73h2.31V78.43l2.17-.71v4H264v1.83h-3.4l0,7.61a3.09,3.09,0,0,0,.46,1.93,1.85,1.85,0,0,0,1.55.57,2.2,2.2,0,0,0,1.39-.44ZM147.4,148.18a3.91,3.91,0,0,1-3.89,3.91,3.56,3.56,0,0,1-2.7-1.15,4,4,0,0,1,0-5.51,3.64,3.64,0,0,1,2.69-1.15,3.91,3.91,0,0,1,3.91,3.9m48.38,3-7.05,0-25.68-39.43a19.08,19.08,0,0,1-1.55-3.1h-.21a52.64,52.64,0,0,1,.29,6.8l.09,35.8-5.8,0-.13-49.55,7.53,0,24.91,38.8c1,1.54,1.67,2.65,2,3.31h.14a51.21,51.21,0,0,1-.37-7.28l-.09-34.9,5.77,0,.13,49.55Zm37.23-.1-26.26.07-.13-49.55,25.12-.06v5.25l-19.31,0,0,16.48,17.9,0v5.25l-17.9,0,0,17.31,20.46-.05Zm39.72-44.4-14.28,0,.12,44.3h-5.81l-.11-44.3-14.3,0,0-5.25,34.38-.09Z"/><path class="cls-6" d="M193.46,16c5.64,17.12,7.84,47.68,24.23,47.64a21.12,21.12,0,0,0,3.77-.37c-14.9-3.44-16.75-33.66-25.88-49.3-.71.65-1.41,1.33-2.12,2"/><path class="cls-7" d="M195.58,14c9.13,15.64,11,45.86,25.88,49.3a24.12,24.12,0,0,0,3.51-1c-13.38-6.52-17.15-35.87-27.51-50-.62.52-1.25,1.07-1.88,1.63"/><path class="cls-8" d="M208.65,4.66a20.32,20.32,0,0,0-3.77.37,29.06,29.06,0,0,0-10.07,4.24,24.62,24.62,0,0,1,2.65,3.1,36.26,36.26,0,0,1,10.29-6.28A22.73,22.73,0,0,1,211.59,5a12.21,12.21,0,0,0-2.94-.35"/><path class="cls-9" d="M235.39,56.27c1.37-1.09,2.74-2.3,4.1-3.61-5.73-17-7.85-48-24.35-48a18.56,18.56,0,0,0-3.55.34c15,3.69,17,36.39,23.8,51.26"/><path class="cls-10" d="M211.59,5a11.28,11.28,0,0,0-2.94-.35h6.49a19.41,19.41,0,0,0-3.55.35"/><path class="cls-11" d="M235.12,59.89a24,24,0,0,1-1.87-2A34.26,34.26,0,0,1,225,62.34a13.15,13.15,0,0,0,3.1,1,12.49,12.49,0,0,0,2.63.25,17,17,0,0,0,7.59-1.38,14.2,14.2,0,0,1-3.17-2.36"/><path class="cls-12" d="M207.74,6.09c13.48,7,14.74,38.88,25.51,51.8.72-.51,1.43-1,2.14-1.62C228.63,41.4,226.62,8.7,211.59,5a23.1,23.1,0,0,0-3.85,1.08"/><path class="cls-13" d="M197.46,12.37c10.36,14.1,14.13,43.45,27.51,50a34.26,34.26,0,0,0,8.28-4.45c-10.77-12.92-12-44.8-25.51-51.8a36.13,36.13,0,0,0-10.28,6.28"/><path class="cls-14" d="M186.85,15.64a152.66,152.66,0,0,0-5.23,14.75A111.11,111.11,0,0,1,193.45,16a42.45,42.45,0,0,0-1.76-4.57,58.12,58.12,0,0,0-4.84,4.18"/><path class="cls-15" d="M193.12,10.41l-1.43,1.05A44.61,44.61,0,0,1,193.46,16c.71-.7,1.42-1.38,2.13-2a29.42,29.42,0,0,0-2.47-3.59"/><path class="cls-16" d="M194.81,9.27c-.56.36-1.12.74-1.69,1.13A27.85,27.85,0,0,1,195.58,14c.63-.57,1.26-1.12,1.88-1.64a24.62,24.62,0,0,0-2.65-3.1"/><path class="cls-17" d="M286.61,3.15c-7.54,29.38-23.38,53-36.69,59h0l-.72.31-.08,0-.21.08-.09,0-.33.12-.14,0-.16.05-.16.06-.15.05-.28.09-.12,0-.19.05-.13,0-.21,0-.26.06a5.52,5.52,0,0,0,1.91.33c12.64,0,25.33-22.72,46.32-60.45l-8.28,0Z"/><path class="cls-18" d="M178.81,5.93l0,0,0,0h0l.21-.08,0,0,.05,0,.22-.07h0l.49-.18H180l.21-.07.09,0,.21-.06.08,0,.69-.18.1,0,.2,0,.1,0,.21,0h0l.42-.08h.09l.19,0,.11,0,.19,0,.1,0,.46,0c-.44,0-.89-.07-1.35-.07-14.23,0-33.78,26.51-42.52,60.73h1.7c2.81-5,5.34-9.83,7.65-14.31,6.13-24.24,18.69-40.8,29.87-45.21"/><path class="cls-19" d="M186.85,15.64a59.78,59.78,0,0,1,4.84-4.18,24.42,24.42,0,0,0-1.16-2.23,27.49,27.49,0,0,0-3.68,6.41M188,6.1a12.35,12.35,0,0,1,2.53,3.13c.24-.29.48-.56.73-.82A14.5,14.5,0,0,0,187.82,6l.15.07,0,0"/><path class="cls-20" d="M148.94,51.14c12.92-25,19-40.9,29.87-45.21-11.18,4.41-23.74,21-29.87,45.21"/><path class="cls-21" d="M191.26,8.41c-.25.26-.49.53-.73.83a22.06,22.06,0,0,1,1.16,2.23c.48-.37,1-.72,1.43-1.06a18.79,18.79,0,0,0-1.86-2"/><path class="cls-22" d="M154.87,65.3l-.23,0h0l-.2,0h0l-.47,0h0c13.13-.4,19.12-7,22.08-16.54,2.24-7.24,4.09-13.34,5.7-18.46a261.46,261.46,0,0,0-16.51,27.37,13.63,13.63,0,0,1-10.24,7.54"/><path class="cls-23" d="M154.87,65.29c3.5-.45,7.57-2.54,10.24-7.54a262.29,262.29,0,0,1,16.51-27.36,153,153,0,0,1,5.23-14.76c-10.93,10.46-21.88,27.83-32,49.66"/><path class="cls-24" d="M148.94,51.14c-2.31,4.48-4.83,9.25-7.65,14.31l5,0a122.81,122.81,0,0,1,2.7-14.29"/><path class="cls-25" d="M183,4.84l-.1,0-.19,0-.1,0-.2,0-.08,0L181.9,5h0l-.21,0-.1,0-.2,0-.1,0-.69.18-.08,0-.21.07-.1,0-.2.06-.08,0-.48.17-.22.08-.09,0-.21.08-.06,0C168,10.25,161.87,26.1,149,51.15a120.36,120.36,0,0,0-2.7,14.29H147l4.76,0h2.19l.47,0h0l.2,0h.05l.24,0c10.09-21.82,21-39.2,32-49.65a27.28,27.28,0,0,1,3.68-6.41A12.35,12.35,0,0,0,188,6.13l0,0L187.83,6,187.67,6l-.15-.08-.17-.07-.14-.06-.29-.12-.12,0-.21-.09-.12,0-.3-.1h0l-.35-.1-.08,0-.29-.08-.06,0c-.24-.06-.48-.11-.73-.15l-.07,0-.32-.06h-.06l-.37-.05h-.06l-.29,0-.45,0"/><path class="cls-26" d="M256.92,19.48c-2.48,8-4.49,14.61-6.23,20.05,6.83-9.45,13.55-21.33,19.94-35-7.49,2.38-11.48,7.78-13.71,15"/><path class="cls-27" d="M251,61.63c-.35.18-.7.35-1,.5,13.31-6,29.15-29.6,36.69-59h-1.54c-17.41,31.29-23,52.22-34.11,58.48"/><path class="cls-28" d="M242.25,59c2.89-3.55,5.24-9.57,8.44-19.5a97.38,97.38,0,0,1-11.18,13.11l0,0A34.63,34.63,0,0,0,242.25,59"/><path class="cls-11" d="M242.25,59a12.09,12.09,0,0,1-3.19,2.81,8.14,8.14,0,0,1-.77.41,11.36,11.36,0,0,0,4.07,1.28l.67,0h0l.31,0h1.09l.12,0,.24,0H245l.26,0h0l.08,0,.28,0h.08l.31-.06H246l.62-.13a9.11,9.11,0,0,1-4.41-4.22"/><path class="cls-29" d="M217.69,63.67a20.34,20.34,0,0,0,3.77-.38,22.86,22.86,0,0,0,3.51-.95,13.23,13.23,0,0,0,3.09,1,12.65,12.65,0,0,0,2.64.25Zm13,0a17.15,17.15,0,0,0,7.59-1.38,11.36,11.36,0,0,0,4.07,1.28l.67,0h0l.31,0h.39Z"/><path class="cls-30" d="M243.77,63.6h.71l.12,0,.24,0H245l.26,0h0l.08,0,.28,0,.08,0,.32-.06h.05l.62-.13a5.48,5.48,0,0,0,1.91.33l-4.81,0Z"/><path class="cls-31" d="M239.5,52.68v0c-1.37,1.31-2.74,2.52-4.1,3.61-.72.57-1.43,1.11-2.15,1.62a24,24,0,0,0,1.87,2,14.2,14.2,0,0,0,3.17,2.36c.27-.13.52-.27.78-.41A12.24,12.24,0,0,0,242.26,59a34.63,34.63,0,0,1-2.76-6.36"/><path class="cls-32" d="M280.18,3.17l-7.76,0-1.23.06-.57,1.23c-6.39,13.7-13.11,25.59-19.94,35-3.2,9.93-5.55,16-8.44,19.5a9.06,9.06,0,0,0,4.41,4.22l.13,0h0l.1,0,.21,0,.13,0,.19-.05.12,0,.28-.09.15-.05.16-.06.16-.05.14,0,.33-.12.09,0,.21-.08.09,0,.71-.31h0c.34-.15.69-.32,1-.5,11.13-6.25,16.7-27.18,34.11-58.47h-4.88Z"/><path class="cls-33" d="M183.46,4.79l.08,0,.2,0h.07l.37,0,.07,0,.31,0,.08,0,.72.16.06,0,.29.08.08,0,.34.1,0,0,.3.1.12,0,.21.09.12,0,.29.12.14.06.17.07.15.07.16.08a14.5,14.5,0,0,1,3.44,2.4,11.44,11.44,0,0,1,1.22-1.11,13.43,13.43,0,0,0-8-2.55c-.35,0-.7,0-1.06,0"/><path class="cls-34" d="M191.26,8.41a18.79,18.79,0,0,1,1.86,2c.57-.4,1.13-.78,1.69-1.14a17.76,17.76,0,0,0-2.33-2,10.55,10.55,0,0,0-1.22,1.11"/><path class="cls-35" d="M183.12,4.88l1.06,0a13.43,13.43,0,0,1,8,2.55c2.44-1.93,5.38-2.61,9.48-2.62l-19.84,0,1.34.07"/><path class="cls-36" d="M201.62,4.76c-4.09,0-7,.69-9.48,2.62a17.76,17.76,0,0,1,2.33,2,28.87,28.87,0,0,1,10.07-4.24,19.52,19.52,0,0,1,3.78-.37h-6.7Z"/><path class="cls-37" d="M250.69,39.53c1.75-5.44,3.75-12,6.23-20,2.24-7.21,6.21-12.62,13.71-15l.57-1.22c-12.22.76-17.92,7-20.77,16.21-5,16.09-8,26.52-10.92,33.16a97.38,97.38,0,0,0,11.18-13.11"/><path class="cls-38" d="M389.11,36.88C383,36,376.75,12.73,376.79,12.73,372.34,14,336.43,24.6,350.36,33.89c23.25,15.5,22.21,46.8-12.26,73-48.33,36.66,47.83,47.26,49.19,44.94,23.84-40.13,12.63-69.7,12.63-69.7S427.88,73,452,69.33c3.13-.45-13.78-25.51-62.93-32.45Zm38,14.28S409.86,56,401.87,60.1c0,0,4.46-13.89,4.31-16.28,0,0,17.23,4.78,20.92,7.34ZM398,60.1s-7.91-4.63-10.74-5.43L404.1,43.82s0,5.9-6.07,16.28Zm-14.21,27L398,95.54C396,97.62,382.31,104,382.31,104c2-4.79,1.51-16.92,1.51-16.92Zm2.23-.64,12.29-4.18c1.12,4.28.8,11.36.8,11.36-3.5-1.43-13.09-7.18-13.09-7.18Zm-29.36,28s11-18.68,10.62-20.75c0,0,1.25,5.1,9.36,12.45,0,0-5.93,4-20,8.3Zm19.18-4.64s-2.19,10.18-7.47,18.12a35.4,35.4,0,0,1-13.31-10.45s18.73-6.23,20.78-7.67Zm3.61-53.16s-6.25,6.07-10.05,9.58c0,0-.16-13.25-1-13.72,0,0,7.68,1.89,11.08,4.14Zm-10.07-8,10.74-9.26s2.72,3,2.08,13.57c0,0-9.82-3.67-12.82-4.31ZM381,59.29s-1.75,8.78-5.9,14.05c0,0-3.9-3.35-5.62-4.46,0,0,10.41-8.62,11.52-9.59Zm-7,20s3,1.92,2.7,6.71c0,0-20.13,9.1-23.15,11.18,0,0,19.34-16,20.45-17.89Zm-4.53,13.41,10.9-4.47a29,29,0,0,1-1.92,15.8s-5.52-3.21-9-11.33Zm10.07-7.51s-1.23-8.15-2.84-9.41c0,0,7-3.36,17.41-9.42,0,0-13.17,16.75-14.57,18.83Zm.83-14.52S384.13,60.1,384,57.71l10,5.44Zm20.43-27.46c-1.12.48-16.76,9.26-16.76,9.26a15.69,15.69,0,0,0-1.67-13.1l18.43,3.84ZM384,36.31,372.8,34.56l8.3-5.11Zm-24.58-14c1-.8,16.77-7.82,16.77-7.82s4.46,11.17,3,11.17-20.77-2.56-19.8-3.35Zm20.08,5.43-10.07,6.22H366.9s-9.26-9.42-9.59-10.39c0,0,19.74,4.48,22.17,4.17Zm-24.07-3,7,8.22s-11-2.48-11.82-3.43,4.8-4.79,4.8-4.79Zm-1.13,9.26,7,2.38,2.56,8.47s-6.72-8.78-9.59-10.85Zm8.79,2.4,15.33,2.23-11.49,8.62c0-1.91-3.84-10.85-3.84-10.85Zm4.47,37a9.4,9.4,0,0,1,4,2.39,80.79,80.79,0,0,1-8.46,6.53s4.31-7.48,4.47-8.92ZM358,88.76a51.51,51.51,0,0,1,12.77-8.38L351.57,97.14,358,88.76Zm4.15,6.78s-4.63,13.1-9.25,17.72c0,0-2.08-2.56-2.39-12,0,0,9.74-5.11,11.64-5.75Zm-15.64,7.51s-.31,5.11,3.2,13.26c0,0-17.88,5.59-20.75,5.59,0,0,1.91-11.35,17.55-18.85ZM328.9,123.32c5.26,0,20-4.16,20-4.16-.8,2.88-12,17.41-12,17.41-8.77-6.07-8-13.25-8-13.25Zm9.25,14.05,13.42-17.24a69.84,69.84,0,0,0,12.28,9.1l-25,9.11-.7-1Zm2.25,1.28,25.39-6.87-9.1,13.72s-10.39-1.42-16.29-6.85Zm29-6.87s10.6,4.64,21.45,4.79c0,0-25.56,9.84-32.91,10.2,0,0,11.59-14,11.46-15Zm16.64,19.48s-17.77-1.48-23-4.49c0,0,15.58-3,28.47-8.43,0,0-3.87,11-5.48,12.92Zm5.48-15.48s-17.94-3.2-20.81-6.55c0,0,24.9-10,25.79-11.81,0,0-2,14.6-5,18.36Zm-19.2-9.9,8-16.93s11.82,6.23,16.2,7.19c0,0-20.18,9.89-24.18,9.74Zm24.9-11.49c-7.18-1.75-14.9-7.67-14.9-7.67,3.44-1,16.86-8.94,16.86-8.94a40.41,40.41,0,0,1-2,16.61ZM383.18,83.72S397.23,68.08,398,66.16c0,0,8.77,4.31,11.82,9,0,0-23,7.18-26.67,8.61Zm18.69-21.39s24.43-9.25,26.82-9.41a99.66,99.66,0,0,1-16.13,21.23s-5.47-8.79-10.69-11.82Zm15,11S429,59.29,431.41,52.91c0,0,16.12,10.69,18.51,15.64,0,0-26.82,2.25-33.05,4.79Z"/><text class="cls-39" transform="translate(409.56 123.3)">SQL</text><path class="cls-40" d="M641.64,51.15c0-7.61-9.53-14.82-24.13-19.29,3.37-14.89,1.87-26.73-4.73-30.53A10.26,10.26,0,0,0,607.53,0V5.24a5.38,5.38,0,0,1,2.67.61c3.19,1.83,4.57,8.78,3.49,17.72-.26,2.2-.68,4.52-1.19,6.88a113.81,113.81,0,0,0-14.87-2.55,112.86,112.86,0,0,0-9.74-11.7c7.64-7.09,14.8-11,19.67-11V0h0c-6.44,0-14.87,4.59-23.39,12.55C575.65,4.63,567.23.09,560.79.09V5.31c4.84,0,12,3.87,19.66,10.91a111,111,0,0,0-9.67,11.68,108.24,108.24,0,0,0-14.88,2.58c-.54-2.34-.94-4.61-1.22-6.79-1.1-8.94.26-15.9,3.42-17.74a5.11,5.11,0,0,1,2.69-.61V.12h0a10.41,10.41,0,0,0-5.29,1.31c-6.58,3.79-8,15.61-4.66,30.45-14.56,4.5-24,11.68-24,19.27S536.33,66,550.93,70.43c-3.37,14.89-1.87,26.74,4.73,30.53a10.28,10.28,0,0,0,5.27,1.31c6.44,0,14.86-4.59,23.38-12.55,8.52,7.91,17,12.46,23.39,12.46a10.56,10.56,0,0,0,5.29-1.31c6.58-3.8,8-15.62,4.66-30.46C632.16,65.94,641.64,58.73,641.64,51.15ZM611.16,35.53c-.86,3-1.94,6.14-3.16,9.25-1-1.87-2-3.75-3.06-5.62s-2.23-3.7-3.38-5.48C604.89,34.18,608.1,34.78,611.16,35.53ZM600.44,60.46c-1.82,3.16-3.7,6.16-5.64,8.94q-5.24.46-10.58.47c-3.54,0-7.07-.16-10.53-.44q-2.93-4.19-5.67-8.9c-1.78-3.06-3.39-6.18-4.87-9.31,1.45-3.14,3.09-6.28,4.85-9.34s3.7-6.16,5.64-8.94q5.24-.46,10.58-.47c3.53,0,7.07.16,10.53.44q2.93,4.19,5.67,8.9c1.78,3.06,3.39,6.18,4.87,9.31C603.81,54.26,602.2,57.4,600.44,60.46Zm7.56-3a98.44,98.44,0,0,1,3.23,9.32c-3.06.75-6.29,1.38-9.64,1.87,1.15-1.8,2.29-3.65,3.37-5.55S607,59.29,608,57.42Zm-23.73,25a97.26,97.26,0,0,1-6.51-7.49c2.11.09,4.26.16,6.44.16s4.37,0,6.5-.16A92.65,92.65,0,0,1,584.27,82.4ZM566.85,68.61c-3.32-.49-6.53-1.1-9.6-1.85.87-3,2-6.13,3.16-9.25,1,1.88,2,3.75,3.07,5.62S565.7,66.83,566.85,68.61Zm17.3-48.71a95.67,95.67,0,0,1,6.51,7.49c-2.11-.1-4.26-.17-6.44-.17s-4.38.05-6.51.17A91.28,91.28,0,0,1,584.15,19.9ZM566.83,33.68c-1.15,1.81-2.3,3.66-3.37,5.55s-2.09,3.75-3.05,5.62c-1.26-3.14-2.34-6.27-3.23-9.32C560.25,34.81,563.48,34.18,566.83,33.68ZM545.64,63C537.36,59.46,532,54.82,532,51.15s5.36-8.34,13.64-11.85c2-.86,4.22-1.64,6.49-2.36a112.46,112.46,0,0,0,5.26,14.25,111,111,0,0,0-5.19,14.19C549.88,64.65,547.68,63.86,545.64,63Zm12.6,33.45c-3.19-1.82-4.57-8.78-3.49-17.72.26-2.2.68-4.52,1.19-6.88a113.81,113.81,0,0,0,14.87,2.55,114.09,114.09,0,0,0,9.73,11.7c-7.63,7.1-14.79,11-19.66,11A5.51,5.51,0,0,1,558.24,96.44ZM613.76,78.6c1.1,9-.26,15.9-3.42,17.75a5.2,5.2,0,0,1-2.69.61c-4.84,0-12-3.87-19.66-10.91a111,111,0,0,0,9.67-11.68,108.24,108.24,0,0,0,14.88-2.58A66.38,66.38,0,0,1,613.76,78.6Zm9-15.61c-2,.87-4.21,1.64-6.48,2.37A112.68,112.68,0,0,0,611,51.1a109.6,109.6,0,0,0,5.2-14.19c2.32.73,4.52,1.53,6.58,2.39,8.28,3.54,13.64,8.17,13.64,11.85S631.06,59.48,622.77,63Z"/><circle class="cls-40" cx="584.2" cy="51.15" r="10.7"/><text class="cls-41" transform="translate(524.83 139.83)">React</text><g id="g3054"><polygon id="polygon3028" class="cls-42" points="908.74 36.39 899.44 140.51 857.66 152.09 816 140.53 806.72 36.39 908.74 36.39"/><polygon id="polygon3030" class="cls-43" points="857.73 143.24 891.49 133.88 899.43 44.91 857.73 44.91 857.73 143.24"/><polygon id="polygon3032" class="cls-44" points="839.66 70.45 857.73 70.45 857.73 57.68 857.68 57.68 825.7 57.68 826.01 61.1 829.15 96.3 857.73 96.3 857.73 83.53 840.83 83.53 839.66 70.45"/><polygon id="polygon3034" class="cls-44" points="842.54 102.69 835.63 102.69 829.72 102.69 831.51 122.74 857.67 130 857.73 129.99 857.73 116.7 857.67 116.71 843.45 112.87 842.54 102.69"/><path id="path3036" class="cls-5" d="M807.21,5.09H815v7.74h7.16V5.09H830V28.51H822.2V20.67H815v7.84h-7.83V5.09Z"/><path id="path3038" class="cls-5" d="M840.32,12.86h-6.89V5.09H855v7.77h-6.89V28.51h-7.83V12.86Z"/><path id="path3040" class="cls-5" d="M858.47,5.09h8.16l5,8.23,5-8.23h8.16V28.51H877V16.9l-5.39,8.33h-.13l-5.39-8.33V28.51h-7.66V5.09Z"/><path id="path3042" class="cls-5" d="M888.73,5.09h7.83V20.77h11v7.74H888.73Z"/><polygon id="polygon3044" class="cls-5" points="857.68 96.3 873.41 96.3 871.93 112.86 857.68 116.71 857.68 130 883.87 122.74 884.06 120.58 887.06 86.96 887.37 83.53 883.93 83.53 857.68 83.53 857.68 96.3"/><polygon id="polygon3046" class="cls-5" points="857.68 70.42 857.68 70.45 888.49 70.45 888.49 70.45 888.53 70.45 888.79 67.58 889.37 61.1 889.68 57.68 857.68 57.68 857.68 65.61 857.68 70.42"/></g><g id="g3013"><polygon id="polygon2989" class="cls-45" points="726.01 152.09 684.34 140.53 675.06 36.39 777.08 36.39 767.78 140.51 726.01 152.09"/><polygon id="polygon2991" class="cls-46" points="759.83 133.88 767.77 44.91 726.07 44.91 726.07 143.24 759.83 133.88"/><polygon id="polygon2993" class="cls-44" points="696.34 83.53 697.49 96.3 726.07 96.3 726.07 83.53 696.34 83.53"/><polygon id="polygon2995" class="cls-44" points="694.04 57.68 695.21 70.45 726.07 70.45 726.07 57.68 726.02 57.68 694.04 57.68"/><polygon id="polygon2997" class="cls-44" points="726.07 116.7 726.01 116.71 711.79 112.87 710.88 102.69 703.97 102.69 698.06 102.69 699.85 122.74 726.01 130 726.07 129.99 726.07 116.7"/><path id="path2999" class="cls-5" d="M690.07,1.09h21.75v9.1H699.17v9.1h12.65v9.09H690.07Z"/><path id="path3001" class="cls-5" d="M717,1.09h20.17a.8.8,0,0,1,.79.79V8.21a.79.79,0,0,1-.79.79H726.06a.8.8,0,0,0-.79.79h0a1.6,1.6,0,0,0,1.6,1.6h10.27a.8.8,0,0,1,.79.79V28a.79.79,0,0,1-.79.79H717a.79.79,0,0,1-.8-.79V21.26a.8.8,0,0,1,.8-.79H728a.79.79,0,0,0,.79-.79h0a1.6,1.6,0,0,0-1.6-1.59H717a.8.8,0,0,1-.8-.8V1.88A.8.8,0,0,1,717,1.09Z"/><path id="path3003" class="cls-5" d="M743.07,1.09h20.17a.79.79,0,0,1,.79.79V8.21a.79.79,0,0,1-.79.79H752.17a.79.79,0,0,0-.79.79h0a1.6,1.6,0,0,0,1.59,1.6h10.27a.79.79,0,0,1,.79.79V28a.79.79,0,0,1-.79.79H743.07a.79.79,0,0,1-.79-.79V21.26a.79.79,0,0,1,.79-.79h11.08a.79.79,0,0,0,.79-.79h0a1.6,1.6,0,0,0-1.6-1.59H743.07a.79.79,0,0,1-.79-.8V1.88A.79.79,0,0,1,743.07,1.09Z"/><polygon id="polygon3005" class="cls-5" points="755.71 83.53 758.02 57.68 726.02 57.68 726.02 70.45 744.02 70.45 742.86 83.53 726.02 83.53 726.02 96.3 741.75 96.3 740.27 112.86 726.02 116.71 726.02 130 752.21 122.74 752.4 120.58 755.4 86.96 755.71 83.53"/></g><path class="cls-47" d="M938.38,14.94h118.74V133.69H938.38Z"/><path d="M969.6,114.17l9.09-5.5c1.75,3.11,3.34,5.74,7.17,5.74,3.67,0,6-1.43,6-7V69.46H1003v38.1c0,11.55-6.78,16.82-16.66,16.82-8.93,0-14.11-4.63-16.74-10.21m39.46-1.19,9.08-5.26c2.4,3.9,5.51,6.77,11,6.77,4.63,0,7.58-2.31,7.58-5.5,0-3.82-3-5.18-8.13-7.41l-2.79-1.2c-8-3.42-13.39-7.73-13.39-16.82,0-8.37,6.37-14.74,16.34-14.74,7.09,0,12.19,2.47,15.86,8.93l-8.69,5.58c-1.91-3.43-4-4.79-7.17-4.79s-5.34,2.08-5.34,4.79c0,3.34,2.07,4.7,6.85,6.77l2.79,1.2c9.49,4.06,14.83,8.21,14.83,17.53,0,10-7.9,15.55-18.5,15.55-10.36,0-17.05-4.95-20.32-11.4"/></g></g></g></g></g></svg>