<?xml version="1.0" encoding="UTF-8"?>
<svg id="Layer_2" data-name="Layer 2" xmlns="http://www.w3.org/2000/svg" xmlns:xlink="http://www.w3.org/1999/xlink" viewBox="0 0 777.09 786.05">
  <defs>
    <style>
      .cls-1, .cls-2, .cls-3, .cls-4, .cls-5 {
        stroke-width: 0px;
      }

      .cls-1, .cls-6 {
        fill: none;
      }

      .cls-7 {
        clip-path: url(#clippath-1);
      }

      .cls-8 {
        clip-path: url(#clippath-3);
      }

      .cls-9 {
        clip-path: url(#clippath-2);
      }

      .cls-2 {
        fill: #26dbd6;
      }

      .cls-3 {
        fill: #727272;
      }

      .cls-10 {
        opacity: .2;
      }

      .cls-11 {
        opacity: .5;
      }

      .cls-4 {
        fill: #7fffa7;
      }

      .cls-6 {
        stroke: #9e6c46;
        stroke-linecap: round;
        stroke-linejoin: round;
        stroke-width: .5px;
      }

      .cls-5 {
        fill: #00ba61;
      }
    </style>
    <clipPath id="clippath-1">
      <circle class="cls-1" cx="388.54" cy="397.51" r="388.54"/>
    </clipPath>
    <clipPath id="clippath-2">
      <circle class="cls-1" cx="388.54" cy="397.51" r="388.54"/>
    </clipPath>
    <clipPath id="clippath-3">
      <circle class="cls-1" cx="388.54" cy="397.51" r="388.54"/>
    </clipPath>
  </defs>
  <g id="Moon">
    <g id="OBJECTS">
      <path class="cls-6" d="M529.05.25s.93,3.18,4.19,2.71"/>
      <g>
        <circle class="cls-2" cx="388.54" cy="397.51" r="388.54"/>
        <g class="cls-7">
          <g class="cls-11">
            <path class="cls-4" d="M3.21,226.97c5.33,50.57,44.47,95.84,93.74,108.42,21.14,5.4,43.5,5.25,64.28,11.88,25.89,8.27,47.91,26.99,61.97,50.25,11.07,18.32,17.33,39.29,19.26,60.64.92,10.16-3.51,20.12-11.8,26.07-24.82,17.83-49.55,38.09-66.55,62.77-10.76,15.63-18.16,37.33-7.34,52.92,7.03,10.13,20.09,14.87,26.81,25.21,10.54,16.24,1.23,37.32-4.71,55.75-10.3,31.93-7.61,71.19,17.51,93.44,17.13,15.17,41.01,19.56,63.68,22.66,23.39,3.2,47.95,5.54,69.98-2.96,19.98-7.7,35.6-23.44,50.58-38.74,19.65-20.08,39.53-40.46,53.32-64.94,10.25-18.19,16.97-39.77,11.63-59.95-2.52-9.52-7.6-18.25-9.71-27.87-4.54-20.66,5.16-41.67,5.9-62.8,1.16-33.25-21.44-64.83-51.69-78.67-31.37-14.36-69.11-11.13-100.15,3.78-2.54,1.22-5.45,1.7-8.13.84-7.16-2.27-5.71-10.9-1.37-15.21,3.68-3.66,8.78-5.52,12.83-8.76,10.67-8.54,11.78-24.32,10.01-37.87-1.77-13.55-8.71-32.56-1.3-40.59,7.41-8.03,28.95-39.56,25.23-62.76-2.38-14.82-9.89-30.49-3.34-44,4.95-10.21,16.53-15.4,27.6-17.9,11.07-2.5,22.74-3.23,32.93-8.24,10.19-5,18.69-16.14,15.88-27.14-1.81-7.07-7.9-12.4-14.6-15.29-6.7-2.9-14.07-3.77-21.28-4.9-23.02-3.58-45.61-9.94-67.12-18.91-6.93-16.75-16.75-33.15-23.68-49.9-2.37-5.73-5.08-11.86-10.45-14.95-7.08-4.08-16.03-1.41-23.55,1.78-21.84,9.25-42.09,22.16-64.52,29.86s-48.58,9.54-68.75-2.93c-7.97-4.92-14.57-11.8-22.48-16.81-7.91-5.01-18.07-8.03-26.62-4.22-7.49,3.34-11.94,11.01-15.71,18.29C24.26,158.41-.71,189.82,3.21,226.97Z"/>
            <path class="cls-4" d="M605.38,77.44c-14.59,9.19-29.98,17.25-43.51,27.94-13.53,10.7-25.35,24.55-29.76,41.22-4.41,16.68.01,36.38,13.75,46.8,8.11,6.15,18.36,8.53,27.83,12.27s19.08,9.81,22.14,19.52c1.79,5.69,1.06,11.85,2.06,17.73,1.76,10.34,8.97,19.29,18.05,24.53,9.08,5.24,19.85,7.04,30.33,6.61,10.54-.44,22.11-2.8,30.89,3.05,9.49,6.32,11.58,19.66,19.87,27.48,11.44,10.79,29.72,7.52,44.94,3.54,22.59-5.9,47.32-13.33,59.69-33.12,10.3-16.48,9.26-37.68,4.49-56.52-13.44-53.16-52.22-96.01-92.79-132.91-16.58-15.08-34.37-30.09-55.64-38.02-14.16-5.28-14.63-1.95-24.33,8.09-8.24,8.53-18.02,15.48-28.03,21.78Z"/>
            <path class="cls-4" d="M771.88,471.34c-16.95,1.18-34.73-2.54-48.09-13.04-12.92-10.15-20.61-25.57-32.48-36.94-13.16-12.59-30.78-19.54-48.51-23.67-20.51-4.78-41.8-6.19-62.77-4.15-12.16,1.18-25.3,4.14-32.89,13.72-10.39,13.1-5.8,32.66,2.86,46.96,8.66,14.3,20.94,26.71,26.06,42.62,5.55,17.24,1.86,35.88-1.01,53.76-2.91,18.12-4.93,36.66-2.01,54.78,2.92,18.12,11.29,35.97,25.91,47.07,8.74,6.64,20.03,11.39,24.32,21.5,2.78,6.56,1.93,14.04,3.23,21.04,3.72,20.1,25.52,33.17,45.95,32.51,20.43-.66,39.07-12.07,54.26-25.75,46.16-41.57,67.44-103.34,86.95-162.32,6.63-20.05,18.92-49.77,12.83-71.23-2.79-9.82-9.66-8.1-17.97-5.46-12.13,3.84-23.82,7.72-36.63,8.61Z"/>
          </g>
        </g>
        <g class="cls-9">
          <g>
            <path class="cls-5" d="M-6.75,221.99c5.33,50.57,44.47,95.84,93.74,108.42,21.14,5.4,43.5,5.25,64.28,11.88,25.89,8.27,47.91,26.99,61.97,50.25,11.07,18.32,17.33,39.29,19.26,60.64.92,10.16-3.51,20.12-11.8,26.07-24.82,17.83-49.55,38.09-66.55,62.77-10.76,15.63-18.16,37.33-7.34,52.92,7.03,10.13,20.09,14.87,26.81,25.21,10.54,16.24,1.23,37.32-4.71,55.75-10.3,31.93-7.61,71.19,17.51,93.44,17.13,15.17,41.01,19.56,63.68,22.66,23.39,3.2,47.95,5.54,69.98-2.96,19.98-7.7,35.6-23.44,50.58-38.74,19.65-20.08,39.53-40.46,53.32-64.94,10.25-18.19,16.97-39.77,11.63-59.95-2.52-9.52-7.6-18.25-9.71-27.87-4.54-20.66,5.16-41.67,5.9-62.8,1.16-33.25-21.44-64.83-51.69-78.67-31.37-14.36-69.11-11.13-100.15,3.78-2.54,1.22-5.45,1.7-8.13.84-7.16-2.27-5.71-10.9-1.37-15.21,3.68-3.66,8.78-5.52,12.83-8.76,10.67-8.54,11.78-24.32,10.01-37.87-1.77-13.55-8.71-32.56-1.3-40.59,7.41-8.03,28.95-39.56,25.23-62.76-2.38-14.82-9.89-30.49-3.34-44,4.95-10.21,16.53-15.39,27.6-17.9s22.74-3.23,32.93-8.24c10.19-5,18.69-16.14,15.88-27.14-1.81-7.07-7.9-12.4-14.6-15.29-6.7-2.9-14.07-3.77-21.28-4.9-23.02-3.58-45.61-9.94-67.12-18.91-6.93-16.75-16.75-33.15-23.68-49.9-2.37-5.73-5.08-11.86-10.45-14.95-7.08-4.08-16.03-1.41-23.55,1.78-21.84,9.25-42.09,22.16-64.52,29.86s-48.58,9.54-68.75-2.93c-7.97-4.92-14.57-11.8-22.48-16.81-7.91-5.01-18.07-8.03-26.62-4.22-7.49,3.34-11.94,11.01-15.71,18.29C14.3,153.43-10.67,184.84-6.75,221.99Z"/>
            <path class="cls-5" d="M595.42,72.46c-14.59,9.19-29.98,17.25-43.51,27.94-13.53,10.7-25.35,24.55-29.76,41.22-4.41,16.68.01,36.38,13.75,46.8,8.11,6.15,18.36,8.53,27.83,12.27s19.08,9.81,22.14,19.52c1.79,5.69,1.06,11.85,2.06,17.73,1.76,10.34,8.97,19.29,18.05,24.53,9.08,5.24,19.85,7.04,30.33,6.61,10.54-.44,22.11-2.8,30.89,3.05,9.49,6.32,11.58,19.66,19.87,27.48,11.44,10.79,29.72,7.52,44.94,3.54,22.59-5.9,47.32-13.33,59.69-33.12,10.3-16.48,9.26-37.68,4.49-56.52-13.44-53.16-52.22-96.01-92.79-132.91-16.58-15.08-34.37-30.09-55.64-38.02-14.16-5.28-14.63-1.95-24.33,8.09-8.24,8.53-18.02,15.48-28.03,21.78Z"/>
            <path class="cls-5" d="M761.93,466.36c-16.95,1.18-34.73-2.54-48.09-13.04-12.92-10.15-20.61-25.57-32.48-36.94-13.16-12.59-30.78-19.54-48.51-23.67-20.51-4.78-41.8-6.19-62.77-4.15-12.16,1.18-25.3,4.14-32.89,13.72-10.39,13.1-5.8,32.66,2.86,46.96,8.66,14.3,20.94,26.71,26.06,42.62,5.55,17.24,1.86,35.88-1.01,53.76-2.91,18.12-4.93,36.66-2.01,54.78,2.92,18.12,11.29,35.97,25.91,47.07,8.74,6.64,20.03,11.39,24.32,21.5,2.78,6.56,1.93,14.04,3.23,21.04,3.72,20.1,25.52,33.17,45.95,32.51,20.43-.66,39.07-12.07,54.26-25.75,46.16-41.57,67.44-103.34,86.95-162.32,6.63-20.05,18.92-49.77,12.83-71.23-2.79-9.82-9.66-8.1-17.97-5.46-12.13,3.84-23.82,7.72-36.63,8.61Z"/>
          </g>
        </g>
        <g class="cls-8">
          <g class="cls-10">
            <path class="cls-3" d="M-27.62,442.16c18.07,21.37,36.16,41.05,54.27,59.41,18.35,18.25,36.9,35.01,55.43,50.62,18.67,15.52,37.76,29.47,56.78,42.3l14.39,9.27c4.82,2.98,9.79,5.71,14.57,8.59,2.43,1.39,4.73,2.94,7.23,4.19l7.38,3.87c4.93,2.52,9.6,5.36,14.66,7.52,4.93,2.35,9.79,4.72,14.6,7.12,4.98,2.08,9.91,4.18,14.77,6.32,4.79,2.29,9.88,3.87,14.76,5.79l7.33,2.82c2.4,1.01,4.96,1.62,7.42,2.46,4.96,1.54,9.82,3.3,14.72,4.77,4.93,1.27,9.81,2.58,14.64,3.94,1.21.33,2.4.71,3.63,1.01l3.72.77,7.39,1.6,7.33,1.68c2.47.46,4.99.8,7.46,1.23l7.42,1.28c2.47.41,4.89.99,7.42,1.18,5,.56,9.97,1.17,14.92,1.83,2.46.42,4.99.45,7.48.65l7.48.56c2.49.18,4.96.46,7.45.61l7.48.16,7.46.25,3.72.16c1.24.02,2.48-.06,3.73-.08,4.97-.13,9.92-.21,14.87-.22,4.94-.2,9.86-.69,14.79-.93,2.45-.2,4.94-.14,7.37-.5l7.32-.87c9.84-.76,19.37-2.76,29.07-4.09,9.43-2.22,19.09-3.77,28.31-6.56l7.03-1.79c2.38-.52,4.56-1.47,6.87-2.16,4.53-1.54,9.21-2.81,13.73-4.4,4.42-1.76,8.89-3.46,13.41-5.1,1.12-.43,2.3-.77,3.37-1.27l3.23-1.49,6.53-2.91c34.45-14.94,68.39-38.37,101.41-68.26,33.37-29.7,64.9-65.74,97.11-105.18,32.25-39.34,65.31-82.03,103.04-123.28,1.07,55.77-2.61,110.22-14.42,164.84-11.75,54.43-31.87,109.19-62.99,160.89-7.9,12.84-16.48,25.47-25.77,37.81-9.43,12.26-19.44,24.3-30.38,35.8-11,11.44-22.54,22.63-35.14,32.94-3.04,2.67-6.35,5.12-9.63,7.6l-9.89,7.39-9.99,7.31-10.39,6.6-10.48,6.52-5.27,3.23c-1.76,1.08-3.59,1.96-5.39,2.94-7.23,3.84-14.52,7.62-21.85,11.33-7.39,3.53-14.95,6.59-22.48,9.81-3.79,1.52-7.52,3.29-11.37,4.57l-11.54,3.98c-15.36,5.6-31.12,9.36-46.88,13.3-15.87,3.01-31.78,6.18-47.82,7.57l-12.02,1.26c-4.01.46-8.02.47-12.03.7-8.02.3-16.06.74-24.07.75-8.01-.17-16.03-.41-24.03-.7-2-.09-4-.12-6-.26l-5.98-.55-11.94-1.17-11.92-1.26c-3.96-.55-7.89-1.25-11.84-1.9l-11.8-2.03c-3.92-.72-7.87-1.29-11.74-2.3-7.78-1.83-15.53-3.72-23.26-5.66-3.88-.88-7.67-2.2-11.48-3.36l-11.4-3.63c-3.79-1.24-7.58-2.42-11.33-3.75l-11.15-4.38-11.09-4.46-5.52-2.26c-1.82-.79-3.62-1.7-5.42-2.55-7.21-3.45-14.37-6.95-21.48-10.49-6.99-3.71-13.73-7.76-20.53-11.69-3.36-2.03-6.82-3.87-10.05-6.09l-9.73-6.53c-6.42-4.43-12.98-8.61-19-13.51-6.13-4.75-12.2-9.53-18.2-14.34-5.78-5.1-11.5-10.22-17.15-15.36-5.73-5.06-10.88-10.74-16.19-16.16l-7.85-8.23c-2.62-2.72-4.98-5.7-7.46-8.55-4.86-5.78-9.79-11.45-14.4-17.35-4.51-6.01-8.95-12.02-13.31-18.04-16.97-24.5-31.58-50.14-43-76.9-11.28-26.84-19.82-54.42-25.06-82.39-5-28.07-6.86-56.37-5.35-84.17Z"/>
          </g>
        </g>
      </g>
    </g>
  </g>
</svg>