<?xml version="1.0" encoding="UTF-8"?>
<svg xmlns="http://www.w3.org/2000/svg" viewBox="0 0 423.03 378.36">
  <defs>
    <style>
      .cls-1 {
        fill: #bc3431;
      }

      .cls-1, .cls-2, .cls-3, .cls-4, .cls-5, .cls-6, .cls-7, .cls-8, .cls-9, .cls-10, .cls-11 {
        stroke-width: 0px;
      }

      .cls-2 {
        fill: #396;
      }

      .cls-3 {
        fill: #4fcfd6;
      }

      .cls-4, .cls-12, .cls-13 {
        mix-blend-mode: screen;
      }

      .cls-4, .cls-13 {
        opacity: .2;
      }

      .cls-4, .cls-9 {
        fill: #ffe254;
      }

      .cls-12 {
        opacity: .5;
      }

      .cls-5 {
        fill: #fefefe;
      }

      .cls-6 {
        fill: #cc746c;
      }

      .cls-7 {
        fill: #ab4543;
      }

      .cls-8 {
        fill: #7de3e1;
      }

      .cls-14 {
        isolation: isolate;
      }

      .cls-15 {
        fill: #000;
        font-family: AppleColorEmoji, 'Apple Color Emoji';
        font-size: 13px;
      }

      .cls-10 {
        fill: #fff;
      }

      .cls-11 {
        fill: #57c290;
      }
    </style>
  </defs>
  <g class="cls-14">
    <g id="Layer_2" data-name="Layer 2">
      <g id="OBJECTS">
        <g>
          <circle class="cls-4" cx="59.35" cy="54.24" r="54.24" transform="translate(-20.97 57.85) rotate(-45)"/>
          <circle class="cls-4" cx="59.35" cy="54.24" r="40.24" transform="translate(-20.97 57.85) rotate(-45)"/>
          <circle class="cls-9" cx="59.35" cy="54.24" r="22.65" transform="translate(-20.97 57.85) rotate(-45)"/>
        </g>
        <g class="cls-13">
          <path class="cls-10" d="M58.98,235.65h-22.25c-4.58,0-8.3-3.72-8.3-8.3h0c0-4.58,3.72-8.3,8.3-8.3h22.25c4.58,0,8.3,3.72,8.3,8.3h0c0,4.58-3.72,8.3-8.3,8.3Z"/>
          <path class="cls-10" d="M74.88,91.46h0c0,4.58,3.72,8.3,8.3,8.3h46.28c4.58,0,8.3-3.72,8.3-8.3h0c0-4.58-3.72-8.3-8.3-8.3h-28.52c-4.58,0-8.3-3.72-8.3-8.3h0c0-4.58-3.72-8.3-8.3-8.3h-29.01c-4.58,0-8.3,3.72-8.3,8.3h0c0,4.58,3.72,8.3,8.3,8.3h11.25c4.58,0,8.3,3.72,8.3,8.3Z"/>
          <path class="cls-10" d="M270.57,351.02v.04c0,4.57,3.71,8.28,8.28,8.28h87.78c4.57,0,8.28-3.71,8.28-8.28v-.04c0-4.57,3.71-8.28,8.28-8.28h31.54c4.57,0,8.28-3.71,8.28-8.28v-.04c0-4.57-3.71-8.28-8.28-8.28h-27.62c-4.57,0-8.28-3.71-8.28-8.28h0c0-4.57-3.71-8.28-8.28-8.28h-74.77c-4.57,0-8.28,3.71-8.28,8.28v.04c0,4.57,3.71,8.28,8.28,8.28h14.61c4.57,0,8.28,3.71,8.28,8.28h0c0,4.57-3.71,8.28-8.28,8.28h-31.54c-4.57,0-8.28,3.71-8.28,8.28Z"/>
        </g>
        <g>
          <circle class="cls-3" cx="219.48" cy="215.23" r="163.13" transform="translate(-87.91 218.23) rotate(-45)"/>
          <circle class="cls-8" cx="213.34" cy="205.24" r="151" transform="translate(-82.64 210.97) rotate(-45)"/>
          <g>
            <path class="cls-11" d="M171.15,68.8c0,2.12-.86,4.04-2.25,5.43-1.39,1.39-3.31,2.25-5.43,2.25h-34.82c9.25-6.06,19.14-11.22,29.55-15.35h5.27c4.24,0,7.68,3.44,7.68,7.67Z"/>
            <path class="cls-11" d="M143.83,84.15c0,2.12-.86,4.04-2.24,5.43-1.39,1.38-3.31,2.24-5.43,2.24h-27.45c6.24-5.6,12.9-10.73,19.94-15.34h7.51c4.24,0,7.67,3.43,7.67,7.67Z"/>
            <path class="cls-11" d="M138.48,145.51h0c-1.31,0-2.37-1.06-2.37-2.37v-2.71c0-1.31,1.06-2.37,2.37-2.37h0c1.31,0,2.37,1.06,2.37,2.37v2.71c0,1.31-1.06,2.37-2.37,2.37Z"/>
            <path class="cls-11" d="M147.88,145.78h3.26c.92,0,1.45,1.05.9,1.79l-1.63,2.22c-.45.61-1.36.61-1.81,0l-1.63-2.22c-.54-.74-.01-1.79.9-1.79Z"/>
            <path class="cls-11" d="M167.88,146.82l2.25,2.36c.63.67.24,1.77-.67,1.89l-2.73.35c-.75.1-1.38-.56-1.25-1.31l.48-2.71c.16-.91,1.28-1.24,1.92-.58Z"/>
            <path class="cls-11" d="M141.7,137.58h0c-.71,0-1.28-.57-1.28-1.28v-1.85c0-.71.57-1.28,1.28-1.28h0c.71,0,1.28.57,1.28,1.28v1.85c0,.71-.57,1.28-1.28,1.28Z"/>
            <path class="cls-11" d="M176.95,155.81h-4.53c-.64,0-1.16-.52-1.16-1.16h0c0-.64.52-1.16,1.16-1.16h4.53c.64,0,1.16.52,1.16,1.16h0c0,.64-.52,1.16-1.16,1.16Z"/>
            <path class="cls-2" d="M370.86,200.48c.53-2.27,3.2-3.26,5.08-1.89v-26.16l-11.59-23.57c-.95-1.94,1.43-3.81,3.09-2.42l-.6-7.21c-8.4-16.25-19.41-30.93-32.49-43.48h0c-3.53-1.58-6.85-3.67-9.86-6.2-15.88-13.43-35.79-20.11-59.39-20.62-4.57-.1-9.13.64-13.47,2.11l-1.81.61c-4.18,1.41-5.72,6.52-3.01,10.01l-5.38-4.15c-1.7-1.31-3.94-1.69-5.98-1l-22.57,7.64h-6.99c-2.21,0-4-1.83-3.94-4.04-.11-2.08-1.97-3.63-4.05-3.63h-9.98c-2.3,0-4.56.61-6.54,1.77l-22.92,13.37c-2.97,1.74-4.06,5.64-2.14,8.49,1.81,2.66,5.33,3.36,7.98,1.73l16.27-10.02c0,3.62,2.51,6.65,5.88,7.46h-6.05c-4.05,0-7.58,3-7.95,6.98h-19.27l-27.95,15.17v6.06c0,3.14-2.54,5.68-5.67,5.68h-4.06c-4.63,0-8.38,3.75-8.38,8.38v.44c0,4.71,3.75,8.46,8.37,8.46h.27c5.23,0,9.47-4.24,9.47-9.47v-5.05l9.6-5.67h9.42l10.76,12.33c.9,1.03,2.45,1.18,3.53.34l.05-.04c1.2-.93,1.39-2.65.43-3.81-3.14-3.82-9.44-11.47-9.44-11.47l.72-.51c1.37-.98,3.01-1.51,4.69-1.51h.09c2.76,0,5.33,1.35,6.89,3.6,1.9,2.74,4.2,6.03,4.2,6.03v7.45l4.55,4.97c.91.99,2.57.35,2.57-1v-2.58c0-2.7,2.18-4.88,4.87-4.88h4.76c.89,0,1.22,1.18.46,1.64l-4.02,2.42c0,1.99.81,3.79,2.11,5.1,1.31,1.3,3.11,2.11,5.1,2.11h7.81c4.1,0,7.7,3.06,7.99,7.15.17,2.35-.73,4.5-2.24,6.01-1.4,1.4-3.33,2.26-5.45,2.26h-29.31c-5.92,0-11.6-2.36-15.77-6.55-2.44-2.46-5.32-4.37-8.45-5.67-3.13-1.3-6.52-1.99-9.98-1.99h-3.3c-17.43,0-33.57,9.3-42.21,24.44-4.03,7.06-7.45,15.51-8.89,25.18-.1.65-.19,1.29-.26,1.93-2.88,24.88,17.11,46.54,42.16,46.54h.62l29.53,43.39c1.37,2.02.9,4.76-1.08,6.2-1.22.88-1.86,2.26-1.86,3.66,0,.97.31,1.95.96,2.78l31,39.62c2.07,2.65,5.25,4.19,8.61,4.19,1.87,0,3.67-.48,5.26-1.35s2.97-2.14,3.97-3.71l16.84-26.48c4.55-7.16,6.96-15.46,6.96-23.94v-22.87l28.24-28.24c3.5-3.5,1.02-9.48-3.93-9.48h-14.08l-32.27-56.68c-1.17-2.06.31-4.61,2.68-4.61,1.13,0,2.17.62,2.71,1.62l24.26,44.97c1.89,3.49,5.53,5.66,9.5,5.66,1.3,0,2.58-.24,3.77-.68,1.2-.45,2.32-1.11,3.3-1.96l24.65-21.39c2.56-2.22,2.82-6.09.59-8.64l-5.06-5.76c-2.2-2.5-6-2.78-8.54-.62-1.14.97-2.55,1.45-3.95,1.45-1.67,0-3.33-.68-4.53-2.01l-10.56-11.7c-1.42-1.57-1.09-4.04.69-5.18.57-.37,1.21-.55,1.85-.55.81,0,1.62.29,2.26.85l11.39,9.97h13.38c14.01,0,26.88,7.76,33.41,20.17l17.35,32.94c1.06,2,4.02,1.65,4.59-.54l4.35-16.82,12.72-12.72c3.39-3.38,9.06-2.64,11.46,1.5l11.23,19.35v30.87c0,1.23.8,2.37,2,2.64.93.21,1.82-.1,2.42-.69.47-.47.76-1.11.76-1.83v-31.19l3.41,8.81c.62,1.61,2.85,1.7,3.61.15,1.03-2.07,1.98-5.09,1.81-8.96-.26-6.29-3.38-12.73-4.7-15.21-.38-.69-.49-1.5-.31-2.27l.93-3.97ZM211.48,139.09h-20.92c-1.37,0-2.68-.5-3.71-1.4-2.17-1.9-2.55-5.14-.87-7.5l2.25-3.16c2.17-3.05,5.69-4.86,9.43-4.86h4.61c.88,0,1.59.71,1.59,1.59s-.71,1.59-1.59,1.59h-6.17c-.69,0-1.24.56-1.24,1.24s.56,1.24,1.24,1.24h7.84l9.13,5.61c.9.55,1.45,1.54,1.45,2.6,0,1.68-1.36,3.05-3.05,3.05ZM244.66,149.18h0c-2.63,1.77-6.21,1.07-7.98-1.56l-9.67-14.38c-1.77-2.64-1.07-6.21,1.56-7.98h0c2.63-1.77,6.21-1.07,7.98,1.56l9.67,14.38c1.77,2.64,1.07,6.21-1.56,7.98Z"/>
            <path class="cls-11" d="M229.45,305.29l-5.75,14.37c-1.29,3.23.28,6.89,3.5,8.19h0c3.24,1.3,6.92-.28,8.21-3.52l8.51-21.42c1.02-2.57-1.69-5.02-4.14-3.76l-8.92,4.59c-.64.33-1.14.88-1.41,1.55Z"/>
            <path class="cls-11" d="M355.09,282.7h0c-2.01,0-3.64-1.63-3.64-3.64v-29.22c0-2.01,1.63-3.64,3.64-3.64h0c2.01,0,3.64,1.63,3.64,3.64v29.22c0,2.01-1.63,3.64-3.64,3.64Z"/>
            <path class="cls-11" d="M383.01,242.92h0c-1.7,10.23-4.35,20.13-7.84,29.62-.25.04-.51.06-.78.06h-1.17c-2.9,0-5.25-2.35-5.25-5.26v-5.8c0-.83.19-1.65.57-2.39l7.17-14.06c.93-1.83,2.78-2.87,4.69-2.87.89,0,1.78.23,2.61.7Z"/>
          </g>
          <path class="cls-2" d="M140.16,138.75c-.46-.46-1.1-.73-1.82-.69-1.28.07-2.23,1.23-2.23,2.51v2.4c0,1.26.91,2.42,2.16,2.53,1.4.12,2.58-.98,2.58-2.36v-2.71c0-.65-.27-1.25-.69-1.68ZM135.36,91.82h.8c2.12,0,4.04-.86,5.43-2.24.49-.5.91-1.05,1.26-1.67-2.55,1.2-5.05,2.51-7.49,3.91ZM141.7,133.17c-.71,0-1.28.57-1.28,1.28v1.85c0,.71.57,1.28,1.28,1.28s1.28-.57,1.28-1.28v-1.85c0-.71-.57-1.28-1.28-1.28ZM151.14,145.78h-3.26c-.92,0-1.44,1.04-.9,1.79l1.6,2.17c.47.63,1.41.63,1.87,0l1.6-2.17c.54-.75.01-1.79-.91-1.79ZM170.13,149.18l-2.25-2.36c-.63-.67-1.75-.33-1.92.58l-.48,2.7c-.13.75.5,1.41,1.25,1.31l2.73-.35c.91-.11,1.3-1.22.67-1.88ZM176.95,153.49h-4.53c-.64,0-1.16.52-1.16,1.16s.52,1.16,1.16,1.16h4.53c.64,0,1.16-.52,1.16-1.16s-.52-1.16-1.16-1.16ZM218.64,82.2l-5.76,1.94s0,0-.01,0h-6.98c-2.21,0-4-1.83-3.94-4.04-.03-.54-.19-1.05-.42-1.51,0-.01-.02-.02-.03-.02-4.35-.54-8.79-.82-13.28-.82-1.92,0-3.83.05-5.73.16l-1.12.34-22.91,13.37c-2.97,1.74-4.06,5.64-2.14,8.49,1.81,2.66,5.33,3.36,7.98,1.73l16.21-9.98s.06,0,.06.03c.03,3.49,2.39,6.42,5.6,7.32.04.01.04.07,0,.07h-5.76c-4.04,0-7.56,2.98-7.95,6.94,0,.02-.02.04-.04.04h-19.22s-.01,0-.02,0l-27.92,15.15s-.02.02-.02.04v6.04c0,3.14-2.54,5.68-5.67,5.68h-4.02c-4.65,0-8.42,3.77-8.42,8.42v.4c0,4.71,3.75,8.46,8.37,8.46h.23c5.25,0,9.51-4.26,9.51-9.51v-4.99s0-.03.02-.03l9.57-5.65s.01,0,.02,0h9.39s.02,0,.03.01l10.75,12.32c.9,1.03,2.45,1.18,3.53.34l.05-.04c1.2-.93,1.39-2.65.43-3.81-3.02-3.68-8.97-10.9-9.41-11.44-.01-.02-.01-.04,0-.06l.72-.51c1.36-.97,3-1.49,4.67-1.49h.08c2.76,0,5.33,1.35,6.89,3.6,1.86,2.69,4.11,5.9,4.2,6.03,0,0,0,0,0,.02v7.42s0,.02.01.03l4.54,4.96c.91.99,2.57.35,2.57-1v-2.54c0-2.72,2.2-4.92,4.92-4.92h4.71c.89,0,1.22,1.18.46,1.64l-4,2.41s-.02.02-.02.04c0,1.98.82,3.77,2.11,5.08,1.31,1.3,3.11,2.11,5.1,2.11h7.81c4.1,0,7.7,3.06,7.99,7.15.17,2.35-.73,4.5-2.24,6.01-1.4,1.4-3.33,2.26-5.45,2.26h-29.31c-5.92,0-11.6-2.36-15.77-6.55-2.44-2.46-5.32-4.37-8.45-5.67s-6.52-1.99-9.98-1.99h-3.3c-17.43,0-33.57,9.3-42.21,24.44-1.29,2.26-2.52,4.66-3.64,7.2v.06c-.15,23.61,7.43,45.46,20.35,63.15,0,0,.01.01.02.01,5.02,2.08,10.51,3.23,16.28,3.23h.62l19.06,28.02s0,.01.01.01c14.87,7.92,31.83,12.41,49.85,12.41,10.87,0,21.36-1.64,31.23-4.67.02,0,.03-.02.03-.04v-14.22s0-.02.01-.03l28.16-28.16c3.52-3.52,1.03-9.55-3.96-9.55h-13.96s-.03,0-.03-.02l-32.26-56.66c-1.17-2.06.31-4.61,2.68-4.61,1.13,0,2.17.62,2.71,1.62l24.26,44.97c1.89,3.49,5.53,5.66,9.5,5.66,1.3,0,2.58-.24,3.77-.68,1.2-.45,2.32-1.11,3.3-1.96l24.65-21.39c2.56-2.22,2.82-6.09.59-8.64l-5.06-5.76c-2.2-2.5-6-2.78-8.54-.62-1.14.97-2.55,1.45-3.95,1.45-1.67,0-3.33-.68-4.53-2.01l-10.56-11.7c-1.42-1.57-1.09-4.04.69-5.18.57-.37,1.21-.55,1.85-.55.81,0,1.62.29,2.26.85l11.38,9.96s.02,0,.03,0h13.36c10.96,0,21.23,4.75,28.31,12.76.02.03.07.01.07-.02.16-2.32.23-4.66.23-7.02,0-48.09-31.94-88.7-75.77-101.78,0,0-.02,0-.02,0ZM211.32,139.09h-20.76c-1.36,0-2.68-.49-3.71-1.39-2.17-1.91-2.55-5.15-.87-7.5l2.25-3.16c2.18-3.05,5.69-4.86,9.43-4.86h4.5c.81,0,1.57.55,1.69,1.36.14.98-.62,1.82-1.57,1.82h-6.16c-.69,0-1.25.55-1.25,1.24s.56,1.24,1.25,1.24h7.83s.01,0,.02,0l9.12,5.6c1.12.7,1.7,2.04,1.35,3.39s-1.69,2.25-3.11,2.25ZM244.66,149.19c-2.64,1.77-6.21,1.07-7.98-1.56l-9.68-14.39c-1.77-2.63-1.07-6.2,1.57-7.98.98-.66,2.1-.98,3.2-.98,1.85,0,3.66.89,4.78,2.54l9.67,14.39c1.77,2.63,1.07,6.2-1.56,7.98Z"/>
        </g>
        <g class="cls-12">
          <path class="cls-10" d="M152.45,171.16v-.04c0-4.57-3.71-8.28-8.28-8.28H56.39c-4.57,0-8.28,3.71-8.28,8.28v.04c0,4.57-3.71,8.28-8.28,8.28H8.28c-4.57,0-8.28,3.71-8.28,8.28v.04c0,4.57,3.71,8.28,8.28,8.28h27.62c4.57,0,8.28,3.71,8.28,8.28h0c0,4.57,3.71,8.28,8.28,8.28h74.77c4.57,0,8.28-3.71,8.28-8.28v-.04c0-4.57-3.71-8.28-8.28-8.28h-14.61c-4.57,0-8.28-3.71-8.28-8.28h0c0-4.57,3.71-8.28,8.28-8.28h31.54c4.57,0,8.28-3.71,8.28-8.28Z"/>
          <path class="cls-10" d="M60.23,262.85h0c0,4.58-3.72,8.3-8.3,8.3h-31.51c-4.58,0-8.3,3.72-8.3,8.3h0c0,4.58,3.72,8.3,8.3,8.3h87.74c4.58,0,8.3-3.72,8.3-8.3h0c0-4.58,3.72-8.3,8.3-8.3h31.51c4.58,0,8.3-3.72,8.3-8.3h0c0-4.58-3.72-8.3-8.3-8.3h-87.74c-4.58,0-8.3,3.72-8.3,8.3Z"/>
          <path class="cls-10" d="M353.37,90.44h0c0-4.58-3.72-8.3-8.3-8.3h-46.28c-4.58,0-8.3,3.72-8.3,8.3h0c0,4.58,3.72,8.3,8.3,8.3h28.52c4.58,0,8.3,3.72,8.3,8.3h0c0,4.58,3.72,8.3,8.3,8.3h29.01c4.58,0,8.3-3.72,8.3-8.3h0c0-4.58-3.72-8.3-8.3-8.3h-11.25c-4.58,0-8.3-3.72-8.3-8.3Z"/>
          <rect class="cls-10" x="331.63" y="195.03" width="38.85" height="16.6" rx="8.3" ry="8.3"/>
          <path class="cls-10" d="M150.78,304.36h-22.25c-4.58,0-8.3-3.72-8.3-8.3h0c0-4.58,3.72-8.3,8.3-8.3h22.25c4.58,0,8.3,3.72,8.3,8.3h0c0,4.58-3.72,8.3-8.3,8.3Z"/>
          <path class="cls-10" d="M174.02,304.36h0c-4.58,0-8.3-3.72-8.3-8.3h0c0-4.58,3.72-8.3,8.3-8.3h0c4.58,0,8.3,3.72,8.3,8.3h0c0,4.58-3.72,8.3-8.3,8.3Z"/>
        </g>
        <g>
          <path class="cls-1" d="M201.11,149.56c-.48-.56-.82-1.21-1.2-1.84-1.35-2.24-2.66-4.49-3.78-6.86-.71-1.49-1.37-3.01-1.74-4.62-.22-.95-.21-1.9-.04-2.87.22-1.28.65-2.47,1.39-3.51,1.36-1.91,3.17-3.19,5.51-3.66,2.08-.42,4.07-.17,5.93.83,1.95,1.04,3.37,2.6,4.13,4.7.27.75.52,1.5.49,2.31.03.31-.09.59-.18.87-.87,2.85-2.28,5.4-4.27,7.64-.96,1.08-1.95,2.13-2.96,3.17-.72.75-1.43,1.51-2.14,2.27-.24.25-.47.52-.76.7-.33.21-.4.52-.39.87Z"/>
          <path class="cls-7" d="M201.11,149.56c-.15-.51-.11-.58.35-.96.97-.8,1.76-1.78,2.62-2.68.1-.1.2-.21.3-.31,1.47-1.48,2.91-2.99,4.16-4.66,1.4-1.88,2.38-3.98,3.06-6.22.07-.23.14-.45.21-.68.17.44.1.89.05,1.33-.13,1.19-.52,2.31-.97,3.41-.56,1.38-1.2,2.72-1.91,4.04-.51.95-1.03,1.91-1.57,2.84-.75,1.3-1.52,2.59-2.34,3.85-.66,1.02-1.32,2.05-2.01,3.12-.65-1-1.27-1.95-1.89-2.91-.03-.05-.04-.11-.06-.16Z"/>
          <path class="cls-5" d="M203.05,130.31c2.29-.1,4.29,1.93,4.17,4.33-.1,2.17-1.82,4.03-4.26,4-2.17-.03-4.2-1.78-4.08-4.42.09-1.99,1.8-3.98,4.16-3.9Z"/>
          <path class="cls-6" d="M196.73,139.4c-1.56-2.13-2.03-4.49-1.19-7,.99-2.99,3.13-4.81,6.25-5.22,3.34-.44,5.92.93,7.71,3.75-3.17-3.23-6.67-3.96-10.62-1.41-3.26,2.74-3.88,6.05-2.15,9.88Z"/>
        </g>
        <text class="cls-15" transform="translate(182.95 167.13)"><tspan x="0" y="0"></tspan></text>
      </g>
    </g>
  </g>
</svg>