<?xml version="1.0" encoding="UTF-8"?>
<svg id="Layer_2" data-name="Layer 2" xmlns="http://www.w3.org/2000/svg" xmlns:xlink="http://www.w3.org/1999/xlink" viewBox="0 0 777.09 955.67">
  <defs>
    <style>
      .cls-1 {
        fill: #ada87d;
      }

      .cls-1, .cls-2, .cls-3, .cls-4, .cls-5, .cls-6, .cls-7, .cls-8, .cls-9, .cls-10, .cls-11, .cls-12, .cls-13, .cls-14, .cls-15, .cls-16, .cls-17, .cls-18, .cls-19, .cls-20, .cls-21 {
        stroke-width: 0px;
      }

      .cls-2 {
        fill: #1b4b52;
      }

      .cls-22 {
        stroke: #1b4b52;
        stroke-width: 3px;
      }

      .cls-22, .cls-5, .cls-23 {
        fill: none;
      }

      .cls-22, .cls-23 {
        stroke-linecap: round;
        stroke-linejoin: round;
      }

      .cls-3 {
        fill: #b4db73;
      }

      .cls-4 {
        fill: #4f7f68;
      }

      .cls-24 {
        clip-path: url(#clippath);
      }

      .cls-6 {
        fill: #9c9b9b;
      }

      .cls-7 {
        fill: #d9d29d;
      }

      .cls-8 {
        fill: #fff8f3;
      }

      .cls-9 {
        fill: #f9f280;
      }

      .cls-10 {
        fill: #22bc64;
      }

      .cls-25 {
        clip-path: url(#clippath-1);
      }

      .cls-26 {
        clip-path: url(#clippath-4);
      }

      .cls-27 {
        clip-path: url(#clippath-3);
      }

      .cls-28 {
        clip-path: url(#clippath-7);
      }

      .cls-29 {
        clip-path: url(#clippath-8);
      }

      .cls-30 {
        clip-path: url(#clippath-6);
      }

      .cls-31 {
        clip-path: url(#clippath-5);
      }

      .cls-32 {
        clip-path: url(#clippath-20);
      }

      .cls-33 {
        clip-path: url(#clippath-21);
      }

      .cls-34 {
        clip-path: url(#clippath-24);
      }

      .cls-35 {
        clip-path: url(#clippath-23);
      }

      .cls-36 {
        clip-path: url(#clippath-22);
      }

      .cls-37 {
        clip-path: url(#clippath-25);
      }

      .cls-38 {
        clip-path: url(#clippath-44);
      }

      .cls-39 {
        clip-path: url(#clippath-45);
      }

      .cls-40 {
        clip-path: url(#clippath-40);
      }

      .cls-41 {
        clip-path: url(#clippath-42);
      }

      .cls-42 {
        clip-path: url(#clippath-41);
      }

      .cls-43 {
        clip-path: url(#clippath-47);
      }

      .cls-44 {
        clip-path: url(#clippath-43);
      }

      .cls-45 {
        clip-path: url(#clippath-46);
      }

      .cls-46 {
        clip-path: url(#clippath-48);
      }

      .cls-47 {
        clip-path: url(#clippath-27);
      }

      .cls-48 {
        clip-path: url(#clippath-28);
      }

      .cls-49 {
        clip-path: url(#clippath-26);
      }

      .cls-50 {
        clip-path: url(#clippath-29);
      }

      .cls-51 {
        clip-path: url(#clippath-34);
      }

      .cls-52 {
        clip-path: url(#clippath-35);
      }

      .cls-53 {
        clip-path: url(#clippath-36);
      }

      .cls-54 {
        clip-path: url(#clippath-37);
      }

      .cls-55 {
        clip-path: url(#clippath-39);
      }

      .cls-56 {
        clip-path: url(#clippath-33);
      }

      .cls-57 {
        clip-path: url(#clippath-32);
      }

      .cls-58 {
        clip-path: url(#clippath-30);
      }

      .cls-59 {
        clip-path: url(#clippath-38);
      }

      .cls-60 {
        clip-path: url(#clippath-31);
      }

      .cls-61 {
        clip-path: url(#clippath-14);
      }

      .cls-62 {
        clip-path: url(#clippath-13);
      }

      .cls-63 {
        clip-path: url(#clippath-12);
      }

      .cls-64 {
        clip-path: url(#clippath-10);
      }

      .cls-65 {
        clip-path: url(#clippath-15);
      }

      .cls-66 {
        clip-path: url(#clippath-17);
      }

      .cls-67 {
        clip-path: url(#clippath-16);
      }

      .cls-68 {
        clip-path: url(#clippath-19);
      }

      .cls-69 {
        clip-path: url(#clippath-11);
      }

      .cls-70 {
        clip-path: url(#clippath-18);
      }

      .cls-11 {
        fill: #faf6e3;
      }

      .cls-12 {
        fill: #e8f0fc;
      }

      .cls-13 {
        fill: #ff614e;
      }

      .cls-71 {
        opacity: .2;
      }

      .cls-72 {
        opacity: .3;
      }

      .cls-73 {
        opacity: .4;
      }

      .cls-74 {
        opacity: .5;
      }

      .cls-14 {
        fill: #5e5e5e;
      }

      .cls-15 {
        fill: #acc74b;
      }

      .cls-16 {
        fill: #e8bd3d;
      }

      .cls-17 {
        fill: #81b669;
      }

      .cls-18 {
        fill: #c3a1ff;
      }

      .cls-19 {
        fill: #9e5715;
      }

      .cls-23 {
        stroke: #9e6c46;
        stroke-width: .5px;
      }

      .cls-20 {
        fill: #9e6c46;
      }

      .cls-21 {
        fill: #b0f0f7;
      }
    </style>
    <clipPath id="clippath">
      <path class="cls-5" d="M330.65,184.68s9.4-22.3-13.11-18.85c0,0-6.06-22.66-25.28-7.73,0,0-18.59-14.7-25.35,11.95,0,0-32.68-11.56-19.98,19.08,0,0-22.89-3.66-3.72,23.94l87.44-28.38Z"/>
    </clipPath>
    <clipPath id="clippath-1">
      <polygon class="cls-5" points="405.86 78.75 403.37 183.7 420.67 183.7 409.4 78.35 405.86 78.75"/>
    </clipPath>
    <clipPath id="clippath-3">
      <polygon class="cls-5" points="407.43 78.74 407.44 78.75 407.44 78.74 407.43 78.74"/>
    </clipPath>
    <clipPath id="clippath-4">
      <polygon class="cls-5" points="407.43 78.74 407.44 78.75 407.44 78.74 407.43 78.74"/>
    </clipPath>
    <clipPath id="clippath-5">
      <polygon class="cls-5" points="407.43 78.74 407.44 78.75 407.44 78.74 407.43 78.74"/>
    </clipPath>
    <clipPath id="clippath-6">
      <polygon class="cls-5" points="407.43 78.74 407.44 78.75 407.44 78.74 407.43 78.74"/>
    </clipPath>
    <clipPath id="clippath-7">
      <path class="cls-5" d="M410.97,78.74c0-1.95-1.58-3.54-3.54-3.54s-3.54,1.58-3.54,3.54,1.58,3.54,3.54,3.54c1.95,0,3.54-1.58,3.54-3.54Z"/>
    </clipPath>
    <clipPath id="clippath-8">
      <polygon class="cls-5" points="336.22 48.67 353.58 185.93 374.91 185.93 341.69 46.48 336.22 48.67"/>
    </clipPath>
    <clipPath id="clippath-10">
      <polygon class="cls-5" points="338.84 47.96 338.85 47.97 338.85 47.95 338.84 47.96"/>
    </clipPath>
    <clipPath id="clippath-11">
      <polygon class="cls-5" points="338.84 47.96 338.85 47.97 338.85 47.95 338.84 47.96"/>
    </clipPath>
    <clipPath id="clippath-12">
      <polygon class="cls-5" points="338.84 47.96 338.85 47.97 338.85 47.95 338.84 47.96"/>
    </clipPath>
    <clipPath id="clippath-13">
      <path class="cls-5" d="M338.18,52.74c2.64.37,5.08-1.47,5.45-4.11s-1.47-5.08-4.11-5.45-5.08,1.47-5.45,4.11,1.47,5.08,4.11,5.45Z"/>
    </clipPath>
    <clipPath id="clippath-14">
      <path class="cls-5" d="M556.84,225.82c23.59-22.54,27.32-113.99,27.32-113.99h-7.4s-8.65,86.74-40.88,106.13l20.96,7.86Z"/>
    </clipPath>
    <clipPath id="clippath-15">
      <path class="cls-5" d="M556.84,225.82c23.59-22.54,27.32-113.99,27.32-113.99h-7.4s-8.65,86.74-40.88,106.13l20.96,7.86Z"/>
    </clipPath>
    <clipPath id="clippath-16">
      <path class="cls-5" d="M556.84,225.82c23.59-22.54,27.32-113.99,27.32-113.99h-7.4s-8.65,86.74-40.88,106.13l20.96,7.86Z"/>
    </clipPath>
    <clipPath id="clippath-17">
      <path class="cls-5" d="M631.87,107.35c-.03-4.53-19.96-13.58-24.89-13.23-4.07.29-19.75,10.74-25.14,14.42-3.03-5.78-11.94-22.39-15.39-24.56-4.19-2.63-26.03-4.03-28.19-.04-1.39,2.61,18.72,7.34,24.7,12.03,2.03,1.6,9.55,8.81,14.2,13.32-7.57-2.83-21.31-7.71-24.8-7.15-4.88.79-22.2,14.17-21.2,18.59.68,2.88,18.91-6.85,26.49-7.28,3.07-.17,17.18.51,22.61.78,4.37,3.23,15.72,11.64,17.98,13.72,5.6,5.13,13.54,24.21,15.89,22.41,3.58-2.78-1.35-24.11-4.63-27.81-2.52-2.85-18.18-8.33-25.32-10.72,5.97-1.72,17.49-4.99,20.25-5.48,7.48-1.32,27.45,3.97,27.45,1.01Z"/>
    </clipPath>
    <clipPath id="clippath-18">
      <path class="cls-5" d="M631.87,107.35c-.03-4.53-19.96-13.58-24.89-13.23-4.07.29-19.75,10.74-25.14,14.42-3.03-5.78-11.94-22.39-15.39-24.56-4.19-2.63-26.03-4.03-28.19-.04-1.39,2.61,18.72,7.34,24.7,12.03,2.03,1.6,9.55,8.81,14.2,13.32-7.57-2.83-21.31-7.71-24.8-7.15-4.88.79-22.2,14.17-21.2,18.59.68,2.88,18.91-6.85,26.49-7.28,3.07-.17,17.18.51,22.61.78,4.37,3.23,15.72,11.64,17.98,13.72,5.6,5.13,13.54,24.21,15.89,22.41,3.58-2.78-1.35-24.11-4.63-27.81-2.52-2.85-18.18-8.33-25.32-10.72,5.97-1.72,17.49-4.99,20.25-5.48,7.48-1.32,27.45,3.97,27.45,1.01Z"/>
    </clipPath>
    <clipPath id="clippath-19">
      <path class="cls-5" d="M631.87,107.35c-.03-4.53-19.96-13.58-24.89-13.23-4.07.29-19.75,10.74-25.14,14.42-3.03-5.78-11.94-22.39-15.39-24.56-4.19-2.63-26.03-4.03-28.19-.04-1.39,2.61,18.72,7.34,24.7,12.03,2.03,1.6,9.55,8.81,14.2,13.32-7.57-2.83-21.31-7.71-24.8-7.15-4.88.79-22.2,14.17-21.2,18.59.68,2.88,18.91-6.85,26.49-7.28,3.07-.17,17.18.51,22.61.78,4.37,3.23,15.72,11.64,17.98,13.72,5.6,5.13,13.54,24.21,15.89,22.41,3.58-2.78-1.35-24.11-4.63-27.81-2.52-2.85-18.18-8.33-25.32-10.72,5.97-1.72,17.49-4.99,20.25-5.48,7.48-1.32,27.45,3.97,27.45,1.01Z"/>
    </clipPath>
    <clipPath id="clippath-20">
      <path class="cls-5" d="M601.13,246.52c19.13-35.64,17.82-76.26,17.82-76.26l-5.5-2.1s-2.88,38.26-31.97,69.45l19.66,8.91Z"/>
    </clipPath>
    <clipPath id="clippath-21">
      <path class="cls-5" d="M601.13,246.52c19.13-35.64,17.82-76.26,17.82-76.26l-5.5-2.1s-2.88,38.26-31.97,69.45l19.66,8.91Z"/>
    </clipPath>
    <clipPath id="clippath-22">
      <path class="cls-5" d="M601.13,246.52c19.13-35.64,17.82-76.26,17.82-76.26l-5.5-2.1s-2.88,38.26-31.97,69.45l19.66,8.91Z"/>
    </clipPath>
    <clipPath id="clippath-23">
      <path class="cls-5" d="M642.8,166.05c.03-2.44-10.13-7.12-12.66-6.88-2.09.2-10.26,5.99-13.08,8.03-1.5-3.09-5.91-11.95-7.67-13.09-2.13-1.37-13.34-1.9-14.5.26-.74,1.42,9.55,3.77,12.58,6.24,1.03.84,4.82,4.65,7.16,7.04-3.86-1.45-10.88-3.94-12.68-3.6-2.52.48-11.56,7.86-11.09,10.24.32,1.54,9.79-3.89,13.7-4.19,1.58-.12,8.83.1,11.62.19,2.22,1.7,7.96,6.12,9.11,7.21,2.83,2.71,6.72,12.91,7.94,11.92,1.87-1.54-.45-12.98-2.1-14.94-1.26-1.51-9.26-4.3-12.91-5.52,3.09-.99,9.05-2.87,10.47-3.16,3.86-.79,14.07,1.85,14.1.26Z"/>
    </clipPath>
    <clipPath id="clippath-24">
      <path class="cls-5" d="M642.8,166.05c.03-2.44-10.13-7.12-12.66-6.88-2.09.2-10.26,5.99-13.08,8.03-1.5-3.09-5.91-11.95-7.67-13.09-2.13-1.37-13.34-1.9-14.5.26-.74,1.42,9.55,3.77,12.58,6.24,1.03.84,4.82,4.65,7.16,7.04-3.86-1.45-10.88-3.94-12.68-3.6-2.52.48-11.56,7.86-11.09,10.24.32,1.54,9.79-3.89,13.7-4.19,1.58-.12,8.83.1,11.62.19,2.22,1.7,7.96,6.12,9.11,7.21,2.83,2.71,6.72,12.91,7.94,11.92,1.87-1.54-.45-12.98-2.1-14.94-1.26-1.51-9.26-4.3-12.91-5.52,3.09-.99,9.05-2.87,10.47-3.16,3.86-.79,14.07,1.85,14.1.26Z"/>
    </clipPath>
    <clipPath id="clippath-25">
      <path class="cls-5" d="M642.8,166.05c.03-2.44-10.13-7.12-12.66-6.88-2.09.2-10.26,5.99-13.08,8.03-1.5-3.09-5.91-11.95-7.67-13.09-2.13-1.37-13.34-1.9-14.5.26-.74,1.42,9.55,3.77,12.58,6.24,1.03.84,4.82,4.65,7.16,7.04-3.86-1.45-10.88-3.94-12.68-3.6-2.52.48-11.56,7.86-11.09,10.24.32,1.54,9.79-3.89,13.7-4.19,1.58-.12,8.83.1,11.62.19,2.22,1.7,7.96,6.12,9.11,7.21,2.83,2.71,6.72,12.91,7.94,11.92,1.87-1.54-.45-12.98-2.1-14.94-1.26-1.51-9.26-4.3-12.91-5.52,3.09-.99,9.05-2.87,10.47-3.16,3.86-.79,14.07,1.85,14.1.26Z"/>
    </clipPath>
    <clipPath id="clippath-26">
      <path class="cls-5" d="M456.83,145.61c12.14-12.63,1.03-21.09-1.99-5.45-12.39-10.03-15.44,3.6,1.99,5.45Z"/>
    </clipPath>
    <clipPath id="clippath-27">
      <path class="cls-5" d="M470.05,147.05c-1.79-4.9-8.25-7.04-14.44-4.78-6.19,2.26-9.75,8.06-7.97,12.96,1.79,4.9,8.25,7.04,14.44,4.78,6.19-2.26,9.76-8.06,7.97-12.96Z"/>
    </clipPath>
    <clipPath id="clippath-28">
      <path class="cls-5" d="M470.05,147.05c-1.79-4.9-8.25-7.04-14.44-4.78-6.19,2.26-9.75,8.06-7.97,12.96,1.79,4.9,8.25,7.04,14.44,4.78,6.19-2.26,9.76-8.06,7.97-12.96Z"/>
    </clipPath>
    <clipPath id="clippath-29">
      <path class="cls-5" d="M470.05,147.05c-1.79-4.9-8.25-7.04-14.44-4.78-6.19,2.26-9.75,8.06-7.97,12.96,1.79,4.9,8.25,7.04,14.44,4.78,6.19-2.26,9.76-8.06,7.97-12.96Z"/>
    </clipPath>
    <clipPath id="clippath-30">
      <path class="cls-5" d="M470.05,147.05c-1.79-4.9-8.25-7.04-14.44-4.78-6.19,2.26-9.75,8.06-7.97,12.96,1.79,4.9,8.25,7.04,14.44,4.78,6.19-2.26,9.76-8.06,7.97-12.96Z"/>
    </clipPath>
    <clipPath id="clippath-31">
      <path class="cls-5" d="M470.05,147.05c-1.79-4.9-8.25-7.04-14.44-4.78-6.19,2.26-9.75,8.06-7.97,12.96,1.79,4.9,8.25,7.04,14.44,4.78,6.19-2.26,9.76-8.06,7.97-12.96Z"/>
    </clipPath>
    <clipPath id="clippath-32">
      <path class="cls-5" d="M497.65,109.03c7.64-7.94.65-13.26-1.25-3.43-7.79-6.3-9.7,2.27,1.25,3.43Z"/>
    </clipPath>
    <clipPath id="clippath-33">
      <path class="cls-5" d="M505.96,109.93c-1.12-3.08-5.19-4.43-9.08-3.01s-6.13,5.07-5.01,8.15c1.12,3.08,5.19,4.43,9.08,3.01,3.89-1.42,6.13-5.07,5.01-8.15Z"/>
    </clipPath>
    <clipPath id="clippath-34">
      <path class="cls-5" d="M505.96,109.93c-1.12-3.08-5.19-4.43-9.08-3.01s-6.13,5.07-5.01,8.15c1.12,3.08,5.19,4.43,9.08,3.01,3.89-1.42,6.13-5.07,5.01-8.15Z"/>
    </clipPath>
    <clipPath id="clippath-35">
      <path class="cls-5" d="M505.96,109.93c-1.12-3.08-5.19-4.43-9.08-3.01s-6.13,5.07-5.01,8.15c1.12,3.08,5.19,4.43,9.08,3.01,3.89-1.42,6.13-5.07,5.01-8.15Z"/>
    </clipPath>
    <clipPath id="clippath-36">
      <path class="cls-5" d="M505.96,109.93c-1.12-3.08-5.19-4.43-9.08-3.01s-6.13,5.07-5.01,8.15c1.12,3.08,5.19,4.43,9.08,3.01,3.89-1.42,6.13-5.07,5.01-8.15Z"/>
    </clipPath>
    <clipPath id="clippath-37">
      <path class="cls-5" d="M505.96,109.93c-1.12-3.08-5.19-4.43-9.08-3.01s-6.13,5.07-5.01,8.15c1.12,3.08,5.19,4.43,9.08,3.01,3.89-1.42,6.13-5.07,5.01-8.15Z"/>
    </clipPath>
    <clipPath id="clippath-38">
      <path class="cls-5" d="M520.8,160.74c18.16-6.52,11.34-20.31.7-6.35-7.31-15.96-16.99-4-.7,6.35Z"/>
    </clipPath>
    <clipPath id="clippath-39">
      <path class="cls-5" d="M533.14,168.63c.63-5.71-4.7-10.98-11.91-11.79-7.21-.8-13.57,3.18-14.21,8.89s4.7,10.98,11.91,11.79c7.21.8,13.57-3.18,14.21-8.89Z"/>
    </clipPath>
    <clipPath id="clippath-40">
      <path class="cls-5" d="M533.14,168.63c.63-5.71-4.7-10.98-11.91-11.79-7.21-.8-13.57,3.18-14.21,8.89s4.7,10.98,11.91,11.79c7.21.8,13.57-3.18,14.21-8.89Z"/>
    </clipPath>
    <clipPath id="clippath-41">
      <path class="cls-5" d="M533.14,168.63c.63-5.71-4.7-10.98-11.91-11.79-7.21-.8-13.57,3.18-14.21,8.89s4.7,10.98,11.91,11.79c7.21.8,13.57-3.18,14.21-8.89Z"/>
    </clipPath>
    <clipPath id="clippath-42">
      <path class="cls-5" d="M533.14,168.63c.63-5.71-4.7-10.98-11.91-11.79-7.21-.8-13.57,3.18-14.21,8.89s4.7,10.98,11.91,11.79c7.21.8,13.57-3.18,14.21-8.89Z"/>
    </clipPath>
    <clipPath id="clippath-43">
      <path class="cls-5" d="M533.14,168.63c.63-5.71-4.7-10.98-11.91-11.79-7.21-.8-13.57,3.18-14.21,8.89s4.7,10.98,11.91,11.79c7.21.8,13.57-3.18,14.21-8.89Z"/>
    </clipPath>
    <clipPath id="clippath-44">
      <path class="cls-5" d="M667.71,301.8c9.79-11.13,2.08-14.79,2.08-14.79,1.61-5.21-3.28-7.17-3.28-7.17,2.52-8.13-3.17-10.07-3.17-10.07,2.43-4.44-1.42-6.27-1.42-6.27.81-9.14-7.35-9.43-7.35-9.43-5.13-8.21-12.81-1.82-12.81-1.82-5.61-6.29-8.72.7-8.72.7-8.98-4.09-11.47,4.83-11.47,4.83.05-.39,46.14,44.01,46.14,44.01Z"/>
    </clipPath>
    <clipPath id="clippath-45">
      <circle class="cls-5" cx="388.54" cy="567.13" r="388.54"/>
    </clipPath>
    <clipPath id="clippath-46">
      <circle class="cls-5" cx="388.54" cy="567.13" r="388.54"/>
    </clipPath>
    <clipPath id="clippath-47">
      <circle class="cls-5" cx="388.54" cy="567.13" r="388.54"/>
    </clipPath>
    <clipPath id="clippath-48">
      <circle class="cls-5" cx="388.54" cy="567.13" r="388.54"/>
    </clipPath>
  </defs>
  <g id="Moon">
    <g id="OBJECTS">
      <g>
        <g>
          <path class="cls-18" d="M105.68,314.18c-12.35-16.8-17.56-38.52-14.25-59.11,3.15-20.62,14.75-39.67,31.61-51.95,16.79-12.37,38.44-17.7,59.05-14.5,20.63,3.04,39.77,14.55,52.07,31.39l-5.9,4.36c-11.19-15.31-28.52-25.72-47.27-28.5-18.74-2.9-38.35,1.92-53.62,13.16-15.32,11.17-25.82,28.42-28.69,47.16-3,18.72,1.71,38.39,12.94,53.66l-5.94,4.31Z"/>
          <path class="cls-9" d="M99.74,318.49c-13.48-18.33-19.18-42.1-15.56-64.55,1.76-11.22,5.73-22.09,11.64-31.78,5.9-9.71,13.73-18.21,22.88-24.95,9.17-6.7,19.65-11.61,30.68-14.31,11.03-2.71,22.59-3.23,33.81-1.53,22.5,3.31,43.45,15.91,56.87,34.28l-5.9,4.36c-12.3-16.84-31.45-28.35-52.07-31.39-20.61-3.2-42.27,2.12-59.05,14.5-16.85,12.28-28.45,31.33-31.61,51.95-3.31,20.58,1.9,42.31,14.25,59.11l-5.93,4.31Z"/>
          <path class="cls-16" d="M93.8,322.8c-14.61-19.85-20.81-45.68-16.87-70,1.91-12.16,6.21-23.94,12.62-34.46,6.39-10.53,14.91-19.77,24.81-27.05,9.93-7.25,21.3-12.59,33.27-15.51,11.96-2.94,24.49-3.5,36.66-1.65,24.38,3.58,47.13,17.26,61.67,37.17l-5.9,4.36c-13.42-18.37-34.37-30.97-56.87-34.28-11.23-1.7-22.79-1.19-33.81,1.53-11.03,2.7-21.5,7.61-30.68,14.31-9.15,6.73-16.99,15.24-22.88,24.95-5.91,9.7-9.88,20.57-11.64,31.78-3.62,22.45,2.08,46.23,15.56,64.55l-5.94,4.31Z"/>
          <path class="cls-13" d="M87.87,327.12c-7.82-10.68-13.49-23.01-16.6-35.92-3.11-12.92-3.66-26.43-1.59-39.52,2.05-13.1,6.69-25.8,13.6-37.14,6.89-11.35,16.08-21.32,26.75-29.16,10.69-7.81,22.95-13.57,35.86-16.72,12.9-3.17,26.4-3.77,39.51-1.78,13.12,1.97,25.83,6.56,37.21,13.42,11.37,6.85,21.43,15.97,29.25,26.64l-5.9,4.36c-14.53-19.91-37.29-33.59-61.67-37.17-12.17-1.84-24.7-1.29-36.66,1.65-11.97,2.93-23.34,8.26-33.27,15.51-9.91,7.29-18.42,16.52-24.81,27.05-6.41,10.52-10.71,22.3-12.62,34.46-3.93,24.32,2.27,50.14,16.87,70l-5.94,4.31Z"/>
        </g>
        <g>
          <path class="cls-15" d="M330.65,184.68s9.4-22.3-13.11-18.85c0,0-6.06-22.66-25.28-7.73,0,0-18.59-14.7-25.35,11.95,0,0-32.68-11.56-19.98,19.08,0,0-22.89-3.66-3.72,23.94l87.44-28.38Z"/>
          <g class="cls-24">
            <g class="cls-71">
              <path class="cls-6" d="M225.51,201.56c11.59-2.67,21.69-4.7,31.46-7.21,9.74-2.42,19.03-5.15,28.2-8.23,9.17-3.1,18.21-6.53,27.44-10.47,9.3-3.9,18.58-8.36,29.46-13.2-2.99,11.6-10.02,21.49-18.62,29.5-8.68,7.97-19.14,14.03-30.37,17.77-11.22,3.75-23.21,5.23-34.94,4.11-11.68-1.2-23.25-4.84-32.64-12.27Z"/>
            </g>
          </g>
        </g>
        <g>
          <path class="cls-4" d="M299.61,126.93c4.22,3.71,7.94,7.99,11.22,12.58,3.27,4.61,6.08,9.55,8.39,14.72,2.31,5.17,4.1,10.57,5.33,16.09,1.21,5.51,1.89,11.15,1.77,16.77-1.18-5.49-2.49-10.87-4.14-16.14-1.63-5.27-3.57-10.42-5.81-15.45-2.24-5.02-4.77-9.91-7.59-14.66-2.81-4.75-5.91-9.34-9.18-13.91Z"/>
          <path class="cls-4" d="M326.32,187.09c.3-3.88.64-7.68.82-11.47.19-3.79.24-7.56.14-11.33-.1-3.77-.35-7.53-.75-11.3-.39-3.77-.95-7.54-1.51-11.39,1.8,3.46,3.04,7.18,3.92,10.99.87,3.81,1.34,7.71,1.44,11.63.1,3.91-.18,7.83-.83,11.68-.67,3.84-1.69,7.63-3.24,11.2Z"/>
          <path class="cls-4" d="M300.05,159.51c3.09,1.09,5.97,2.69,8.67,4.54,2.69,1.87,5.19,4.02,7.45,6.4,2.26,2.38,4.29,4.98,6.03,7.76,1.72,2.78,3.18,5.74,4.12,8.88-2.32-2.83-4.22-5.15-6.1-7.44-2.04-2.42-4.14-4.77-6.3-7.05-2.17-2.28-4.41-4.49-6.72-6.64-2.31-2.17-4.72-4.25-7.15-6.45Z"/>
        </g>
        <g>
          <g>
            <polygon class="cls-8" points="405.86 78.75 403.37 183.7 420.67 183.7 409.4 78.35 405.86 78.75"/>
            <g class="cls-25">
              <path class="cls-14" d="M395.5,93.25c1.9-4.22,4.47-7.39,7.22-10.24,2.78-2.81,5.83-5.2,9.09-7.24,3.26-2.04,6.75-3.71,10.5-4.97,3.77-1.22,7.75-2.11,12.39-1.94-1.9,4.23-4.45,7.4-7.21,10.25-2.78,2.81-5.83,5.2-9.1,7.23s-6.76,3.7-10.51,4.96c-3.78,1.22-7.75,2.11-12.38,1.96Z"/>
            </g>
          </g>
          <g>
            <path id="SVGID" class="cls-11" d="M407.87,78.51c3.38-2.99,8.65-37.97-.42-39.06-9.09-1.09-3.81,36.02-.44,39.06-4.39-1.04-36.02,14.8-31.69,22.84,4.24,7.87,30.39-16.45,32.12-21.8,1.62,5.27,26.14,28.43,32.11,21.81,6.13-6.8-27.25-23.86-31.68-22.85Z"/>
            <polygon id="SVGID-2" data-name="SVGID" class="cls-11" points="407.44 78.73 407.44 78.75 407.43 78.74 407.44 78.73"/>
            <g class="cls-27">
              <path class="cls-11" d="M407.06,79.1c-1.03-4.35-1.29-8.03-1.44-11.59-.11-3.54-.03-6.89.23-10.24.25-3.35.7-6.67,1.36-10.15.71-3.49,1.55-7.07,3.26-11.22,3.35,3,5.27,6.69,6.5,10.52,1.19,3.84,1.6,7.86,1.28,11.83-.32,3.96-1.36,7.87-3.14,11.47-1.82,3.58-4.29,6.92-8.05,9.37Z"/>
            </g>
            <g class="cls-26">
              <path class="cls-14" d="M373.49,104.89c2.8-3.59,5.48-6.21,8.11-8.7,2.64-2.44,5.23-4.66,7.9-6.77,2.67-2.12,5.42-4.12,8.42-6.11,3.03-1.97,6.2-3.97,10.37-5.84.26,4.58-1.07,8.68-3.05,12.34-2.02,3.64-4.77,6.84-8.03,9.39-3.25,2.56-7,4.49-11.01,5.6-4.03,1.06-8.32,1.4-12.7.09Z"/>
            </g>
            <g class="cls-31">
              <path class="cls-14" d="M407.94,80.32c4.07,1.78,7.16,3.51,10.14,5.17,2.94,1.68,5.64,3.32,8.32,5.02,2.67,1.7,5.29,3.47,8.05,5.43,2.76,2,5.62,4.09,8.93,7.06-3.9,2.19-8.16,2.61-12.24,2.16-4.08-.49-8.01-1.95-11.45-4.17-3.44-2.21-6.41-5.17-8.56-8.67-2.11-3.52-3.52-7.55-3.18-12Z"/>
            </g>
            <g class="cls-30">
              <path class="cls-14" d="M408.06,78.39c-1.18-4.53-1.53-8.46-1.77-12.29-.19-3.81-.16-7.45.05-11.09.2-3.64.6-7.26,1.24-11.02.68-3.77,1.5-7.63,3.22-12,3.36,3.3,5.28,7.22,6.54,11.27,1.22,4.06,1.68,8.3,1.42,12.48-.25,4.19-1.21,8.34-2.9,12.22-1.74,3.87-4.1,7.53-7.81,10.42Z"/>
            </g>
          </g>
          <path class="cls-1" d="M439.55,101.37c-.07-.13-.85.99-2.93.93-2.02-.06-4.85-1.21-7.98-3.15-3.14-1.95-6.66-4.66-10.31-7.95-1.82-1.65-3.67-3.45-5.49-5.4-.9-.98-1.8-1.99-2.66-3.06-.42-.54-.83-1.08-1.22-1.65l-.27-.43-.14-.21-.22-.47c-.31-.64-.6-1.34-.88-2.06-.05.12-.1.24-.16.37-.29.73-.6,1.35-.91,1.99-.25.47-.39.62-.6.95-.4.56-.82,1.1-1.25,1.64-.87,1.06-1.79,2.07-2.7,3.05-1.84,1.94-3.71,3.74-5.54,5.4-3.66,3.31-7.18,6.05-10.31,8.06-3.12,1.98-5.93,3.3-7.96,3.28-1.01,0-1.7-.37-2.11-.71-.36-.38-.55-.61-.59-.59-.03.01.08.29.41.76.38.43,1.16.95,2.28,1.02,2.25.16,5.2-1.1,8.44-3.02,3.26-1.95,6.87-4.65,10.62-7.95,1.87-1.65,3.78-3.45,5.67-5.42.94-.99,1.87-2.01,2.78-3.1.45-.55.89-1.12,1.31-1.71l.57-.85.04-.08h0l.02.04.47.74c.41.6.84,1.17,1.28,1.73.89,1.1,1.81,2.13,2.74,3.12,1.87,1.97,3.76,3.77,5.62,5.42,3.74,3.28,7.35,5.96,10.62,7.85,3.26,1.88,6.25,2.97,8.44,2.88,1.1-.02,1.89-.46,2.36-.77.43-.4.61-.63.58-.65Z"/>
          <g>
            <path class="cls-7" d="M410.97,78.74c0-1.95-1.58-3.54-3.54-3.54s-3.54,1.58-3.54,3.54,1.58,3.54,3.54,3.54c1.95,0,3.54-1.58,3.54-3.54Z"/>
            <g class="cls-28">
              <g class="cls-72">
                <path class="cls-6" d="M398.74,80.75c3.29-1.06,5.17-2.09,6.75-2.98,1.55-.88,2.65-1.6,3.69-2.15,1.03-.56,2.25-1.04,3.85-1.81,1.63-.79,3.56-1.74,6.32-3.83,2.45,2.54,2.78,6.1,1.87,9.19-.93,3.11-3.2,5.9-6.28,7.48-3.07,1.61-6.65,1.88-9.73.87-3.05-1.02-5.78-3.32-6.47-6.77Z"/>
              </g>
            </g>
          </g>
        </g>
        <g>
          <g>
            <polygon class="cls-8" points="336.22 48.67 353.58 185.93 374.91 185.93 341.69 46.48 336.22 48.67"/>
            <g class="cls-29">
              <path class="cls-14" d="M325.05,73.22c.76-5.26,2.67-9.78,4.97-14.01,2.35-4.2,5.19-8.04,8.42-11.52,3.23-3.48,6.87-6.58,10.89-9.21,4.06-2.6,8.44-4.81,13.65-5.92-1.78,5.01-4.22,9.08-6.83,12.95-2.64,3.83-5.5,7.36-8.61,10.67-3.1,3.31-6.42,6.42-10.06,9.32-3.68,2.87-7.57,5.6-12.43,7.73Z"/>
            </g>
          </g>
          <g>
            <path id="SVGID-3" data-name="SVGID" class="cls-11" d="M339.07,48.58c3.41,5.13,49.65,18.87,52.84,6.82,3.2-12.07-47.94-11.97-52.69-7.99,2.23-5.74-13.17-51.46-24.85-47.13-11.43,4.23,16.46,44.16,23.36,47.52-7.43,1.19-43.36,29.93-35.54,39.25,8.03,9.56,37.4-32.3,36.88-38.47Z"/>
            <polygon id="SVGID-4" data-name="SVGID" class="cls-11" points="338.85 47.97 338.84 47.96 338.85 47.95 338.85 47.97"/>
            <g class="cls-64">
              <path class="cls-14" d="M302.68,89.18c3-4.51,6-8.11,8.91-11.66,2.92-3.51,5.78-6.85,8.66-10.18,2.87-3.33,5.78-6.63,8.84-10.02,3.1-3.38,6.25-6.86,10.3-10.46.83,5.38-.12,10.59-1.87,15.43-1.79,4.84-4.49,9.32-7.87,13.2-3.38,3.89-7.43,7.19-11.97,9.65-4.55,2.41-9.56,4.09-15,4.05Z"/>
            </g>
            <g class="cls-69">
              <path class="cls-14" d="M341.03,49.9c5.64-.42,10.64-.06,15.56.31,4.9.41,9.63,1.02,14.35,1.69,4.72.68,9.42,1.52,14.22,2.5,4.92,1.01,9.18,2.39,14.78,2.92-1.83,2.18-4.38,3.74-7,4.79-2.64,1.05-5.34,1.65-7.95,2.07-5.26.83-10.62.8-15.86.02-5.25-.76-10.37-2.33-15.17-4.61-4.78-2.34-9.29-5.37-12.92-9.7Z"/>
            </g>
            <g class="cls-63">
              <path class="cls-14" d="M339.64,45.75c-3.4-4.2-5.85-8.25-8.22-12.25-2.32-4-4.43-7.94-6.44-11.93-2.02-3.99-3.92-8.03-5.75-12.27-1.8-4.28-3.58-8.66-4.92-13.91,5.15,1.73,9.34,4.78,12.96,8.33,3.59,3.58,6.56,7.74,8.82,12.26,2.26,4.51,3.83,9.38,4.57,14.4.68,5.03.64,10.21-1.03,15.37Z"/>
            </g>
          </g>
          <path class="cls-1" d="M391.91,55.41s-.23.35-.54,1.01c-.45.57-1.12,1.47-2.42,2.04-2.53,1.23-6.74,1.62-11.81,1.2-5.09-.41-11.1-1.51-17.64-3.25-3.27-.87-6.67-1.91-10.13-3.17-1.73-.63-3.47-1.31-5.18-2.11-.86-.39-1.7-.82-2.51-1.29-.41-.23-.79-.5-1.17-.75-.08-.09-.53-.36-.9-.84l-1.06-1.2c0,.17-.02.36-.03.55l-.11,1.64c-.15.6-.12.58-.22.87-.15.44-.29.88-.49,1.32-.35.88-.77,1.74-1.2,2.58-.86,1.69-1.81,3.31-2.77,4.89-1.93,3.15-3.94,6.1-5.95,8.85-4.02,5.48-7.99,10.17-11.68,13.74-3.67,3.54-7.11,6.09-9.88,6.65-1.38.29-2.44-.06-3.09-.4-.58-.44-.9-.7-.93-.67-.03.02.22.34.79.88.64.44,1.8.92,3.31.67,3.01-.46,6.61-2.98,10.41-6.49,3.81-3.54,7.89-8.21,12-13.7,2.05-2.75,4.1-5.71,6.07-8.89.98-1.59,1.95-3.23,2.83-4.96.45-.86.88-1.75,1.25-2.67.2-.45.36-.94.53-1.43.2-.72.13-.54.14-.56h0l.23.19c.43.29.85.59,1.28.82.87.5,1.74.94,2.62,1.34,1.76.81,3.53,1.5,5.28,2.13,3.51,1.26,6.95,2.29,10.25,3.13,6.61,1.7,12.71,2.72,17.88,3.01,5.15.31,9.48-.22,12.09-1.66,1.35-.67,2.02-1.7,2.41-2.35.26-.74.36-1.13.32-1.14Z"/>
          <g>
            <path class="cls-7" d="M338.18,52.74c2.64.37,5.08-1.47,5.45-4.11.37-2.64-1.47-5.08-4.11-5.45s-5.08,1.47-5.45,4.11,1.47,5.08,4.11,5.45Z"/>
            <g class="cls-62">
              <g class="cls-72">
                <path class="cls-6" d="M332.05,50.59c1.66-.31,2.71-1.01,3.47-1.64.75-.65,1.23-1.26,1.56-1.82.56-1.08.67-1.72,1.32-2.51.6-.81,1.47-1.62,2.69-3.01,1.27-1.35,2.72-3.2,5.29-5.37,2.61,2.09,3.9,4.54,4.3,7.37.37,2.79-.4,6.04-2.42,8.62-1.01,1.3-2.33,2.45-3.9,3.26-1.54.8-3.48,1.28-5.22,1.18-1.77-.11-3.46-.69-4.8-1.75-1.34-1.04-2.28-2.64-2.27-4.33Z"/>
              </g>
            </g>
          </g>
        </g>
        <g>
          <g>
            <path class="cls-20" d="M556.84,225.82c23.59-22.54,27.32-113.99,27.32-113.99h-7.4s-8.65,86.74-40.88,106.13l20.96,7.86Z"/>
            <g class="cls-61">
              <g>
                <path class="cls-6" d="M591.13,130.4c-.2-.32-3.72,2.75-9.09,3.23-5.37.53-9.39-1.83-9.53-1.48-.08.13.79.9,2.5,1.64,1.7.74,4.29,1.36,7.15,1.09,2.87-.27,5.3-1.36,6.82-2.4,1.54-1.05,2.25-1.97,2.15-2.08Z"/>
                <path class="cls-6" d="M585.53,146.25c-.08-.17-1,.17-2.45.59-1.44.4-3.51.86-5.55.09-2.06-.76-3.58-2.25-4.67-3.31-1.08-1.08-1.79-1.76-1.93-1.65-.13.1.32.96,1.26,2.23.94,1.23,2.48,3,4.9,3.91,2.48.93,4.89.2,6.29-.43,1.46-.66,2.22-1.28,2.15-1.42Z"/>
                <path class="cls-6" d="M581.82,158.56c-.29-.25-3.02,3.4-7.95,5.62-4.89,2.31-9.43,2.02-9.43,2.41-.12.3,4.71,1.19,9.96-1.27,5.28-2.4,7.73-6.66,7.42-6.76Z"/>
                <path class="cls-6" d="M584.86,166.06c-.23-.31-4.08,3.13-10.07,4.49-5.96,1.47-10.94.11-11.01.5-.04.14,1.14.69,3.19,1.04,2.05.36,4.99.42,8.11-.32,3.12-.74,5.72-2.12,7.39-3.35,1.68-1.24,2.49-2.26,2.39-2.36Z"/>
                <path class="cls-6" d="M582.5,175.61c-.21-.32-3.98,3.46-10.08,4.1-6.09.68-10.59-2.21-10.72-1.85-.09.12.88,1.02,2.8,1.87,1.9.86,4.83,1.58,8.06,1.23s5.94-1.68,7.61-2.92c1.7-1.25,2.44-2.33,2.34-2.43Z"/>
                <path class="cls-6" d="M577.62,198.39c-.17-.14-1.25,1.37-3.7,2.89-2.4,1.53-6.3,2.85-10.67,2.62-4.38-.24-8.17-1.76-10.78-3-2.63-1.26-4.18-2.22-4.29-2.06-.09.12,1.29,1.35,3.88,2.85,2.56,1.47,6.47,3.21,11.13,3.47,4.67.25,8.81-1.32,11.23-3.13,2.47-1.82,3.32-3.58,3.21-3.63Z"/>
              </g>
            </g>
            <g class="cls-65">
              <g class="cls-72">
                <path class="cls-6" d="M572.35,113.32c3.12-1.88,6.01-2.49,8.81-2.69,2.78-.15,5.45.23,7.97,1.06,2.52.82,4.89,2.11,7.04,3.89,2.13,1.82,4.09,4.04,5.46,7.42-3.37,1.4-6.2,1.72-8.89,1.74-2.67-.02-5.15-.45-7.52-1.24-2.37-.79-4.61-1.93-6.77-3.5-2.15-1.62-4.22-3.57-6.1-6.68Z"/>
              </g>
            </g>
            <g class="cls-67">
              <g class="cls-71">
                <path class="cls-6" d="M556.37,225.92c4.4-9.62,7.97-18.7,9.85-28.32,2.25-9.76,4.17-19.5,5.9-29.3,1.76-9.79,3.23-19.66,4.73-29.63,1.52-9.98,2.84-20.05,4.97-30.38,3.05,10.09,4.42,20.49,4.8,30.92.3,10.43-.37,20.93-2.25,31.26-1.84,10.32-4.74,20.49-8.88,30.16-1.01,2.37-2.15,4.91-3.49,7.28-1.33,2.37-2.81,4.64-4.42,6.77-3.23,4.27-7,8.07-11.21,11.24Z"/>
              </g>
            </g>
          </g>
          <g>
            <path class="cls-3" d="M631.87,107.35c-.03-4.53-19.96-13.58-24.89-13.23-4.07.29-19.75,10.74-25.14,14.42-3.03-5.78-11.94-22.39-15.39-24.56-4.19-2.63-26.03-4.03-28.19-.04-1.39,2.61,18.72,7.34,24.7,12.03,2.03,1.6,9.55,8.81,14.2,13.32-7.57-2.83-21.31-7.71-24.8-7.15-4.88.79-22.2,14.17-21.2,18.59.68,2.88,18.91-6.85,26.49-7.28,3.07-.17,17.18.51,22.61.78,4.37,3.23,15.72,11.64,17.98,13.72,5.6,5.13,13.54,24.21,15.89,22.41,3.58-2.78-1.35-24.11-4.63-27.81-2.52-2.85-18.18-8.33-25.32-10.72,5.97-1.72,17.49-4.99,20.25-5.48,7.48-1.32,27.45,3.97,27.45,1.01Z"/>
            <g class="cls-66">
              <g class="cls-73">
                <path class="cls-6" d="M529.78,123.01c7.47-4.79,15.52-8.85,24.39-11.13,8.82-2.28,18.56-2.46,27.59.68,4.49,1.55,8.76,4.1,12.25,7.28,3.55,3.17,6.35,6.91,8.78,10.69,4.8,7.62,8.63,15.27,14.04,22.38-7.26-5.25-12.67-12.79-18.01-19.52-5.3-6.83-11.41-12.37-19.12-14.96-7.67-2.67-16.19-3.02-24.56-1.77-8.44,1.19-16.8,3.88-25.35,6.34Z"/>
              </g>
            </g>
            <g class="cls-70">
              <g class="cls-73">
                <path class="cls-6" d="M585.18,112.29c3.51-3.16,7.87-5.26,12.39-6.64,4.53-1.37,9.26-1.99,13.94-2.05s9.32.45,13.84,1.36c4.52.94,8.93,2.22,13.23,4.12-4.67.66-9.23.71-13.72.75-4.49,0-8.88,0-13.28,0-4.37.05-8.71.21-13.06.61-4.36.38-8.71,1.03-13.33,1.86Z"/>
              </g>
            </g>
            <g class="cls-68">
              <g class="cls-73">
                <path class="cls-6" d="M575.73,108.82c-3.33-3.32-6.55-6.27-10.02-8.83-3.47-2.54-7.09-4.7-10.91-6.42-3.78-1.73-7.88-2.88-12.27-4.35-4.29-1.48-8.94-3.47-12.13-7.02,4.53,1.28,8.77,1.68,13.26,2.25,4.42.56,9.22,1.39,13.7,3.45,4.44,2,8.42,4.94,11.65,8.5,3.19,3.58,5.65,7.82,6.72,12.42Z"/>
              </g>
            </g>
          </g>
        </g>
        <g>
          <g>
            <path class="cls-20" d="M601.13,246.52c19.13-35.64,17.82-76.26,17.82-76.26l-5.5-2.1s-2.88,38.26-31.97,69.45l19.66,8.91Z"/>
            <g class="cls-32">
              <g>
                <path class="cls-6" d="M620.7,179.34c-.27-.25-2.13,1.7-5.18,2.53-3.03.9-5.64.23-5.74.59-.18.28,2.62,1.64,6.08.62,3.48-.97,5.14-3.6,4.84-3.74Z"/>
                <path class="cls-6" d="M623.78,185.83c-.2-.31-3.07,2.52-7.57,2.55-2.19.04-4.1-.71-5.37-1.42-1.27-.71-1.98-1.35-2.12-1.22-.12.1.36.98,1.63,1.96,1.24.97,3.37,1.98,5.86,1.93,2.49-.01,4.6-.97,5.86-1.9,1.29-.95,1.81-1.79,1.7-1.9Z"/>
                <path class="cls-6" d="M619.41,200.47c-.09-.15-1.19.34-2.9,1.18-1.72.82-4.07,2.01-6.82,2.66-2.74.64-5.35.42-7.09-.15-1.76-.55-2.7-1.3-2.83-1.14-.1.09.66,1.14,2.52,1.97,1.82.84,4.71,1.24,7.69.54,2.97-.7,5.35-2.08,6.98-3.1,1.62-1.05,2.55-1.81,2.46-1.95Z"/>
                <path class="cls-6" d="M618.71,209.21c-.15-.36-4.38,1.76-10.01,1.71-5.63.04-9.85-2.08-10-1.73-.22.23,4,3.01,10,2.98,6,.04,10.22-2.74,10.01-2.97Z"/>
                <path class="cls-6" d="M618.78,218.56c-.12-.16-1.35.75-3.58,1.66-2.2.92-5.5,1.73-9.11,1.32-3.61-.41-6.64-1.95-8.57-3.34-1.96-1.39-2.96-2.56-3.11-2.43-.12.08.64,1.47,2.56,3.13,1.89,1.65,5.08,3.44,8.98,3.89,3.9.44,7.41-.59,9.62-1.77,2.25-1.18,3.3-2.36,3.21-2.47Z"/>
                <path class="cls-6" d="M615.34,233.47c-.09-.2-1.6.6-4.21.9-2.59.33-6.32-.02-9.96-1.71-3.64-1.7-6.47-4.13-8.43-5.94-1.96-1.82-3.12-3.03-3.27-2.91-.12.1.8,1.52,2.64,3.54,1.83,2,4.67,4.65,8.53,6.45,3.88,1.8,7.9,2.03,10.62,1.44,2.75-.57,4.15-1.68,4.08-1.78Z"/>
              </g>
            </g>
            <g class="cls-33">
              <g class="cls-72">
                <path class="cls-6" d="M608.1,169.75c2.71-2.03,5.24-2.78,7.67-3.11,2.43-.28,4.75-.04,6.93.65,2.18.69,4.21,1.83,6.02,3.47,1.79,1.68,3.41,3.76,4.44,7-3.02,1.55-5.49,2.02-7.82,2.19-2.31.12-4.43-.16-6.43-.81-2-.65-3.89-1.65-5.7-3.09-1.8-1.49-3.54-3.3-5.11-6.3Z"/>
              </g>
            </g>
            <g class="cls-36">
              <g class="cls-71">
                <path class="cls-6" d="M600.73,246.71c.39-7.13,1.54-13.69,2.74-20.18,1.24-6.46,2.63-12.79,4.13-19.08,1.5-6.3,3.12-12.57,4.94-18.89,1.86-6.32,3.81-12.69,6.7-19.23,2.29,6.79,2.99,13.72,2.99,20.6-.05,6.89-.92,13.74-2.53,20.41-1.6,6.67-3.93,13.18-7,19.34-3.11,6.14-6.87,12-11.97,17.03Z"/>
              </g>
            </g>
          </g>
          <g>
            <path class="cls-17" d="M642.8,166.05c.03-2.44-10.13-7.12-12.66-6.88-2.09.2-10.26,5.99-13.08,8.03-1.5-3.09-5.91-11.95-7.67-13.09-2.13-1.37-13.34-1.9-14.5.26-.74,1.42,9.55,3.77,12.58,6.24,1.03.84,4.82,4.65,7.16,7.04-3.86-1.45-10.88-3.94-12.68-3.6-2.52.48-11.56,7.86-11.09,10.24.32,1.54,9.79-3.89,13.7-4.19,1.58-.12,8.83.1,11.62.19,2.22,1.7,7.96,6.12,9.11,7.21,2.83,2.71,6.72,12.91,7.94,11.92,1.87-1.54-.45-12.98-2.1-14.94-1.26-1.51-9.26-4.3-12.91-5.52,3.09-.99,9.05-2.87,10.47-3.16,3.86-.79,14.07,1.85,14.1.26Z"/>
            <g class="cls-35">
              <g class="cls-73">
                <path class="cls-6" d="M591.44,175.25c3.58-2.95,7.92-5.03,12.53-6.15,2.31-.55,4.69-.86,7.1-.86,1.2,0,2.41.08,3.61.23.3.03.6.09.9.14l1.12.2c.59.31.75.46,1.01.61l.75.48c3.98,2.6,7.48,6.1,9.9,10.2,2.44,4.09,3.9,8.53,5.04,13.01-2.34-4-4.4-8.1-7.07-11.65-2.63-3.58-5.9-6.54-9.58-8.96l-1.14-.74-1.37-.25c-1.07-.16-2.15-.28-3.24-.32-2.18-.1-4.38.01-6.58.31-4.4.6-8.74,1.91-12.98,3.75Z"/>
              </g>
            </g>
            <g class="cls-34">
              <g class="cls-73">
                <path class="cls-6" d="M618.52,168.84c2.03-1.31,4.2-2.34,6.4-3.28,1.12-.45,2.17-.93,3.39-1.27.61-.17,1.27-.32,1.98-.38.7-.03,1.31.06,1.96.09,2.56.24,4.64.66,7,1.01,2.3.38,4.62.74,6.99,1.31-2.34.72-4.73,1.03-7.14,1.13-2.35.12-4.94-.14-7.06-.34-.52-.03-1.08-.13-1.56-.14-.47.02-.97.09-1.51.19-1.08.19-2.25.52-3.38.74-2.29.47-4.62.84-7.09.94Z"/>
              </g>
            </g>
            <g class="cls-37">
              <g class="cls-73">
                <path class="cls-6" d="M614.44,167.08c-2.09-.55-3.68-2.23-5.09-3.51-1.4-1.36-2.72-2.17-4.49-2.99-1.75-.82-3.61-1.55-5.35-2.5-1.76-.94-3.49-1.97-5.15-3.31,2.07.11,4.07.53,6.05,1.04,1.97.56,3.92,1.09,5.8,1.98.95.46,1.91,1.01,2.79,1.73.9.74,1.62,1.62,2.2,2.48,1.19,1.75,1.91,3.46,3.23,5.09Z"/>
              </g>
            </g>
          </g>
        </g>
        <g>
          <path class="cls-3" d="M612.98,251.76c1.21-3.38,3.1-6.51,5.38-9.32,2.29-2.81,4.98-5.31,7.95-7.4,2.97-2.1,6.22-3.79,9.63-5.01,3.41-1.21,6.97-1.98,10.56-2.06-3.32,1.34-6.52,2.71-9.59,4.3-3.07,1.58-6.01,3.34-8.81,5.31-2.8,1.97-5.45,4.14-7.95,6.51-2.51,2.37-4.84,4.94-7.17,7.67Z"/>
          <path class="cls-3" d="M612.98,251.76c2.02-2.41,4.49-4.4,7.14-6.1,2.66-1.69,5.51-3.06,8.48-4.13,2.96-1.07,6.03-1.81,9.15-2.23,3.11-.4,6.27-.5,9.38-.06-3.4.94-6.15,1.7-8.88,2.45-2.91.84-5.77,1.75-8.6,2.76s-5.61,2.12-8.37,3.35c-2.77,1.21-5.48,2.56-8.3,3.95Z"/>
          <path class="cls-3" d="M612.98,251.76c.25-3.14,1.02-6.2,2.08-9.16,1.08-2.96,2.49-5.8,4.2-8.46,1.71-2.66,3.73-5.13,6.04-7.3,2.31-2.16,4.9-4.03,7.78-5.32-2.11,2.33-4.12,4.6-5.98,6.98-1.87,2.37-3.6,4.81-5.23,7.32-1.63,2.52-3.14,5.11-4.59,7.77-1.32,2.51-2.66,5.04-4.3,8.16Z"/>
        </g>
        <g>
          <g>
            <path class="cls-12" d="M456.83,145.61c12.14-12.63,1.03-21.09-1.99-5.45-12.39-10.03-15.44,3.6,1.99,5.45Z"/>
            <g class="cls-49">
              <path class="cls-6" d="M448.39,147.5c.37-2.09,1.31-3.75,2.57-5.18,1.27-1.41,2.91-2.54,4.79-3.22,1.9-.68,4.01-.85,6.01-.38,1.98.48,3.91,1.62,4.87,3.54-2.07.44-3.52.89-4.9,1.35-1.41.49-2.64.92-3.89,1.35-1.29.46-2.64.93-4.16,1.4-1.54.45-3.19.94-5.3,1.13Z"/>
            </g>
          </g>
          <polygon class="cls-19" points="444.61 156.33 448.85 152.01 450.73 157.14 444.61 156.33"/>
          <g>
            <path class="cls-9" d="M470.05,147.05c-1.79-4.9-8.25-7.04-14.44-4.78-6.19,2.26-9.75,8.06-7.97,12.96,1.79,4.9,8.25,7.04,14.44,4.78,6.19-2.26,9.76-8.06,7.97-12.96Z"/>
            <g class="cls-47">
              <path class="cls-19" d="M457.43,166.11c-3.36-3.37-5.62-7.33-7.32-11.49-1.64-4.18-2.71-8.63-2.58-13.38l5.63.21c-.11,3.63.76,7.5,2.19,11.08,1.44,3.57,3.46,7,6.03,9.56l-3.94,4.02Z"/>
            </g>
            <g class="cls-48">
              <path class="cls-19" d="M465.65,163.18c-6.58-6.47-10.24-15.65-9.9-24.88l5.63.21c-.3,7.58,2.79,15.34,8.22,20.64l-3.94,4.02Z"/>
            </g>
            <g class="cls-50">
              <path class="cls-20" d="M466.75,147.28c-.23-.62-.92-.94-1.54-.72s-.94.92-.72,1.54.92.94,1.54.72.94-.92.72-1.54Z"/>
            </g>
            <g class="cls-58">
              <path class="cls-23" d="M467.23,149.71s2.04,2.21,4.51.52"/>
            </g>
            <g class="cls-60">
              <g class="cls-72">
                <path class="cls-6" d="M445.15,153.95c3.91,1.63,6.76,1.39,9.03.98,2.2-.48,3.73-1.31,5.52-2.35,1.75-1.1,3.42-2.27,5.27-4.19,1.87-1.92,3.75-4.43,6.1-7.97,2.84,3.21,3.71,7.6,2.87,11.89-.83,4.3-3.74,8.54-7.81,10.93-2.03,1.22-4.37,2.03-6.8,2.28-2.42.25-5.02-.12-7.18-1.06-2.18-.97-4.06-2.44-5.35-4.29-1.29-1.84-1.95-4.11-1.63-6.22Z"/>
              </g>
            </g>
          </g>
        </g>
        <g>
          <g>
            <path class="cls-12" d="M497.65,109.03c7.64-7.94.65-13.26-1.25-3.43-7.79-6.3-9.7,2.27,1.25,3.43Z"/>
            <g class="cls-57">
              <path class="cls-6" d="M492.96,109.33c-.34-1.51.09-2.72.76-3.65.69-.93,1.66-1.57,2.73-1.85,1.07-.29,2.23-.23,3.29.22,1.05.47,2.03,1.3,2.5,2.78-1.15,1.02-1.85,1.63-2.48,2.11-.62.46-1.13.75-1.69.89-.56.15-1.15.16-1.91.07-.78-.09-1.69-.27-3.2-.57Z"/>
            </g>
          </g>
          <polygon class="cls-19" points="489.96 115.77 492.63 113.05 493.81 116.28 489.96 115.77"/>
          <g>
            <path class="cls-9" d="M505.96,109.93c-1.12-3.08-5.19-4.43-9.08-3.01s-6.13,5.07-5.01,8.15c1.12,3.08,5.19,4.43,9.08,3.01,3.89-1.42,6.13-5.07,5.01-8.15Z"/>
            <g class="cls-56">
              <path class="cls-19" d="M498.02,121.92c-4.14-4.07-6.44-9.84-6.23-15.64l3.54.13c-.19,4.77,1.76,9.64,5.17,12.98l-2.48,2.53Z"/>
            </g>
            <g class="cls-51">
              <path class="cls-19" d="M503.03,120.07c-4.14-4.07-6.44-9.84-6.23-15.64l3.54.13c-.19,4.77,1.76,9.64,5.17,12.98l-2.48,2.53Z"/>
            </g>
            <g class="cls-52">
              <path class="cls-20" d="M503.88,110.08c-.14-.39-.58-.59-.97-.45s-.59.58-.45.97.58.59.97.45c.39-.14.59-.58.45-.97Z"/>
            </g>
            <g class="cls-53">
              <path class="cls-23" d="M504.19,111.6s1.28,1.39,2.83.32"/>
            </g>
            <g class="cls-54">
              <g class="cls-72">
                <path class="cls-6" d="M489.23,115.77c2.58.26,4.42-.27,6.43-.72,2.04-.48,3.9-.98,5.2-1.66,1.29-.67,2.51-1.69,3.83-3.23,1.33-1.51,2.64-3.41,4.51-5.24.62,2.52.59,4.98-.17,7.5-.74,2.47-2.55,5.1-5.33,6.51-2.76,1.38-5.54,1.41-8,1-2.47-.41-5.37-1.68-6.47-4.16Z"/>
              </g>
            </g>
          </g>
        </g>
        <g>
          <g>
            <path class="cls-12" d="M520.8,160.74c18.16-6.52,11.34-20.31.7-6.35-7.31-15.96-16.99-4-.7,6.35Z"/>
            <g class="cls-59">
              <path class="cls-6" d="M513.89,157.08c1-1.5,2.36-2.3,3.77-2.75,1.42-.44,2.91-.48,4.33-.18,1.42.3,2.77.95,3.89,1.92,1.11.99,2.03,2.27,2.33,4.06-1.76.36-3.04.44-4.24.45-1.18,0-2.23-.11-3.26-.33-1.03-.22-2.03-.55-3.11-1.03-1.09-.5-2.24-1.09-3.7-2.13Z"/>
            </g>
          </g>
          <polygon class="cls-19" points="503.49 165.33 509.79 163.14 509.13 169.13 503.49 165.33"/>
          <g>
            <path class="cls-9" d="M533.14,168.63c.63-5.71-4.7-10.98-11.91-11.79-7.21-.8-13.57,3.18-14.21,8.89s4.7,10.98,11.91,11.79c7.21.8,13.57-3.18,14.21-8.89Z"/>
            <g class="cls-55">
              <path class="cls-19" d="M511.62,181.26c-3.33-9.61-2.44-20.45,2.4-29.39l5.45,2.96c-4,7.33-4.75,16.5-1.99,24.39l-5.86,2.04Z"/>
            </g>
            <g class="cls-40">
              <path class="cls-19" d="M520.64,182.26c-1.67-4.96-1.98-9.99-1.61-14.92.44-4.93,1.56-9.84,4.01-14.47l5.45,2.96c-1.88,3.53-2.92,7.78-3.27,12.01-.34,4.23,0,8.59,1.28,12.38l-5.86,2.04Z"/>
            </g>
            <g class="cls-42">
              <path class="cls-20" d="M529.76,167.24c.08-.73-.44-1.38-1.17-1.46-.73-.08-1.38.44-1.46,1.17-.08.73.44,1.38,1.17,1.46.73.08,1.38-.44,1.46-1.17Z"/>
            </g>
            <g class="cls-41">
              <path class="cls-23" d="M529.05,169.87s.93,3.18,4.19,2.71"/>
            </g>
            <g class="cls-44">
              <g class="cls-72">
                <path class="cls-6" d="M504.6,165.59c3.72,1.95,6.54,2.87,9.14,3.53,2.57.64,4.82.93,6.9,1.03,2.09.09,4.34.03,6.96-.35,2.65-.4,5.54-1.03,9.45-2.59.59,4.24-1.55,8.37-4.75,11.17-3.23,2.82-7.69,4.44-12.28,4.2-4.59-.23-8.87-2.29-11.8-5.41-2.9-3.11-4.63-7.41-3.63-11.57Z"/>
              </g>
            </g>
          </g>
        </g>
        <g>
          <path class="cls-4" d="M667.71,301.8c9.79-11.13,2.08-14.79,2.08-14.79,1.61-5.21-3.28-7.17-3.28-7.17,2.52-8.13-3.17-10.07-3.17-10.07,2.43-4.44-1.42-6.27-1.42-6.27.81-9.14-7.35-9.43-7.35-9.43-5.13-8.21-12.81-1.82-12.81-1.82-5.61-6.29-8.72.7-8.72.7-8.98-4.09-11.47,4.83-11.47,4.83.05-.39,46.14,44.01,46.14,44.01Z"/>
          <g class="cls-38">
            <g class="cls-71">
              <path class="cls-6" d="M623.12,245.62c4.13,6.65,8.42,12.18,13.23,17.15,4.78,4.96,9.99,9.33,15.53,13.26,5.59,3.94,11.55,7.51,17.8,11.02,6.24,3.55,12.79,6.93,19.37,11.23-7.82.74-15.51-.15-23.03-2.15-7.49-2.03-14.81-5.31-21.33-9.94-6.55-4.64-12.21-10.65-16.21-17.65-3.95-6.97-6.3-15.07-5.37-22.92Z"/>
            </g>
          </g>
        </g>
      </g>
      <g>
        <circle class="cls-21" cx="388.54" cy="567.13" r="388.54"/>
        <g class="cls-39">
          <g>
            <path class="cls-2" d="M461.53,551.19c0-7.88-6.82-14.17-14.88-13.28-6.12.68-11.08,5.63-11.76,11.75-.89,8.06,5.4,14.89,13.28,14.89,7.38,0,13.36-5.98,13.36-13.36Z"/>
            <path class="cls-2" d="M326.37,537.93c8.74-1.1,16.09,6.25,14.99,14.99-.75,5.96-5.56,10.77-11.52,11.52-8.74,1.1-16.09-6.25-14.99-14.99.75-5.96,5.56-10.77,11.52-11.52Z"/>
            <path class="cls-22" d="M424.03,568.22s-9.44,29.87-35.9,29.87-35.9-29.87-35.9-29.87"/>
          </g>
        </g>
        <g class="cls-45">
          <g class="cls-74">
            <path class="cls-6" d="M3.21,396.59c5.33,50.57,44.47,95.84,93.74,108.42,21.14,5.4,43.5,5.25,64.28,11.88,25.89,8.27,47.91,26.99,61.97,50.25,11.07,18.32,17.33,39.29,19.26,60.64.92,10.16-3.51,20.12-11.8,26.07-24.82,17.83-49.55,38.09-66.55,62.77-10.76,15.63-18.16,37.33-7.34,52.92,7.03,10.13,20.09,14.87,26.81,25.21,10.54,16.24,1.23,37.32-4.71,55.75-10.3,31.93-7.61,71.19,17.51,93.44,17.13,15.17,41.01,19.56,63.68,22.66,23.39,3.2,47.95,5.54,69.98-2.96,19.98-7.7,35.6-23.44,50.58-38.74,19.65-20.08,39.53-40.46,53.32-64.94,10.25-18.19,16.97-39.77,11.63-59.95-2.52-9.52-7.6-18.25-9.71-27.87-4.54-20.66,5.16-41.67,5.9-62.8,1.16-33.25-21.44-64.83-51.69-78.67-31.37-14.36-69.11-11.13-100.15,3.78-2.54,1.22-5.45,1.7-8.13.84-7.16-2.27-5.71-10.9-1.37-15.21,3.68-3.66,8.78-5.52,12.83-8.76,10.67-8.54,11.78-24.32,10.01-37.87-1.77-13.55-8.71-32.56-1.3-40.59,7.41-8.03,28.95-39.56,25.23-62.76-2.38-14.82-9.89-30.49-3.34-44,4.95-10.21,16.53-15.4,27.6-17.9,11.07-2.5,22.74-3.23,32.93-8.24,10.19-5,18.69-16.14,15.88-27.14-1.81-7.07-7.9-12.4-14.6-15.29-6.7-2.9-14.07-3.77-21.28-4.9-23.02-3.58-45.61-9.94-67.12-18.91-6.93-16.75-16.75-33.15-23.68-49.9-2.37-5.73-5.08-11.86-10.45-14.95-7.08-4.08-16.03-1.41-23.55,1.78-21.84,9.25-42.09,22.16-64.52,29.86s-48.58,9.54-68.75-2.93c-7.97-4.92-14.57-11.8-22.48-16.81-7.91-5.01-18.07-8.03-26.62-4.22-7.49,3.34-11.94,11.01-15.71,18.29C24.26,328.03-.71,359.44,3.21,396.59Z"/>
            <path class="cls-6" d="M605.38,247.06c-14.59,9.19-29.98,17.25-43.51,27.94-13.53,10.7-25.35,24.55-29.76,41.22-4.41,16.68.01,36.38,13.75,46.8,8.11,6.15,18.36,8.53,27.83,12.27s19.08,9.81,22.14,19.52c1.79,5.69,1.06,11.85,2.06,17.73,1.76,10.34,8.97,19.29,18.05,24.53,9.08,5.24,19.85,7.04,30.33,6.61,10.54-.44,22.11-2.8,30.89,3.05,9.49,6.32,11.58,19.66,19.87,27.48,11.44,10.79,29.72,7.52,44.94,3.54,22.59-5.9,47.32-13.33,59.69-33.12,10.3-16.48,9.26-37.68,4.49-56.52-13.44-53.16-52.22-96.01-92.79-132.91-16.58-15.08-34.37-30.09-55.64-38.02-14.16-5.28-14.63-1.95-24.33,8.09-8.24,8.53-18.02,15.48-28.03,21.78Z"/>
            <path class="cls-6" d="M771.88,640.96c-16.95,1.18-34.73-2.54-48.09-13.04-12.92-10.15-20.61-25.57-32.48-36.94-13.16-12.59-30.78-19.54-48.51-23.67-20.51-4.78-41.8-6.19-62.77-4.15-12.16,1.18-25.3,4.14-32.89,13.72-10.39,13.1-5.8,32.66,2.86,46.96,8.66,14.3,20.94,26.71,26.06,42.62,5.55,17.24,1.86,35.88-1.01,53.76-2.91,18.12-4.93,36.66-2.01,54.78,2.92,18.12,11.29,35.97,25.91,47.07,8.74,6.64,20.03,11.39,24.32,21.5,2.78,6.56,1.93,14.04,3.23,21.04,3.72,20.1,25.52,33.17,45.95,32.51,20.43-.66,39.07-12.07,54.26-25.75,46.16-41.57,67.44-103.34,86.95-162.32,6.63-20.05,18.92-49.77,12.83-71.23-2.79-9.82-9.66-8.1-17.97-5.46-12.13,3.84-23.82,7.72-36.63,8.61Z"/>
          </g>
        </g>
        <g class="cls-43">
          <g>
            <path class="cls-10" d="M-6.75,391.61c5.33,50.57,44.47,95.84,93.74,108.42,21.14,5.4,43.5,5.25,64.28,11.88,25.89,8.27,47.91,26.99,61.97,50.25,11.07,18.32,17.33,39.29,19.26,60.64.92,10.16-3.51,20.12-11.8,26.07-24.82,17.83-49.55,38.09-66.55,62.77-10.76,15.63-18.16,37.33-7.34,52.92,7.03,10.13,20.09,14.87,26.81,25.21,10.54,16.24,1.23,37.32-4.71,55.75-10.3,31.93-7.61,71.19,17.51,93.44,17.13,15.17,41.01,19.56,63.68,22.66,23.39,3.2,47.95,5.54,69.98-2.96,19.98-7.7,35.6-23.44,50.58-38.74,19.65-20.08,39.53-40.46,53.32-64.94,10.25-18.19,16.97-39.77,11.63-59.95-2.52-9.52-7.6-18.25-9.71-27.87-4.54-20.66,5.16-41.67,5.9-62.8,1.16-33.25-21.44-64.83-51.69-78.67-31.37-14.36-69.11-11.13-100.15,3.78-2.54,1.22-5.45,1.7-8.13.84-7.16-2.27-5.71-10.9-1.37-15.21,3.68-3.66,8.78-5.52,12.83-8.76,10.67-8.54,11.78-24.32,10.01-37.87-1.77-13.55-8.71-32.56-1.3-40.59,7.41-8.03,28.95-39.56,25.23-62.76-2.38-14.82-9.89-30.49-3.34-44,4.95-10.21,16.53-15.39,27.6-17.9s22.74-3.23,32.93-8.24c10.19-5,18.69-16.14,15.88-27.14-1.81-7.07-7.9-12.4-14.6-15.29-6.7-2.9-14.07-3.77-21.28-4.9-23.02-3.58-45.61-9.94-67.12-18.91-6.93-16.75-16.75-33.15-23.68-49.9-2.37-5.73-5.08-11.86-10.45-14.95-7.08-4.08-16.03-1.41-23.55,1.78-21.84,9.25-42.09,22.16-64.52,29.86s-48.58,9.54-68.75-2.93c-7.97-4.92-14.57-11.8-22.48-16.81-7.91-5.01-18.07-8.03-26.62-4.22-7.49,3.34-11.94,11.01-15.71,18.29-17.2,33.17-42.17,64.58-38.25,101.73Z"/>
            <path class="cls-10" d="M595.42,242.09c-14.59,9.19-29.98,17.25-43.51,27.94-13.53,10.7-25.35,24.55-29.76,41.22-4.41,16.68.01,36.38,13.75,46.8,8.11,6.15,18.36,8.53,27.83,12.27s19.08,9.81,22.14,19.52c1.79,5.69,1.06,11.85,2.06,17.73,1.76,10.34,8.97,19.29,18.05,24.53,9.08,5.24,19.85,7.04,30.33,6.61,10.54-.44,22.11-2.8,30.89,3.05,9.49,6.32,11.58,19.66,19.87,27.48,11.44,10.79,29.72,7.52,44.94,3.54,22.59-5.9,47.32-13.33,59.69-33.12,10.3-16.48,9.26-37.68,4.49-56.52-13.44-53.16-52.22-96.01-92.79-132.91-16.58-15.08-34.37-30.09-55.64-38.02-14.16-5.28-14.63-1.95-24.33,8.09-8.24,8.53-18.02,15.48-28.03,21.78Z"/>
            <path class="cls-10" d="M761.93,635.98c-16.95,1.18-34.73-2.54-48.09-13.04-12.92-10.15-20.61-25.57-32.48-36.94-13.16-12.59-30.78-19.54-48.51-23.67-20.51-4.78-41.8-6.19-62.77-4.15-12.16,1.18-25.3,4.14-32.89,13.72-10.39,13.1-5.8,32.66,2.86,46.96,8.66,14.3,20.94,26.71,26.06,42.62,5.55,17.24,1.86,35.88-1.01,53.76-2.91,18.12-4.93,36.66-2.01,54.78,2.92,18.12,11.29,35.97,25.91,47.07,8.74,6.64,20.03,11.39,24.32,21.5,2.78,6.56,1.93,14.04,3.23,21.04,3.72,20.1,25.52,33.17,45.95,32.51,20.43-.66,39.07-12.07,54.26-25.75,46.16-41.57,67.44-103.34,86.95-162.32,6.63-20.05,18.92-49.77,12.83-71.23-2.79-9.82-9.66-8.1-17.97-5.46-12.13,3.84-23.82,7.72-36.63,8.61Z"/>
          </g>
        </g>
        <g class="cls-46">
          <g class="cls-71">
            <path class="cls-6" d="M-27.62,611.79c18.07,21.37,36.16,41.05,54.27,59.41,18.35,18.25,36.9,35.01,55.43,50.62,18.67,15.52,37.76,29.47,56.78,42.3l14.39,9.27c4.82,2.98,9.79,5.71,14.57,8.59,2.43,1.39,4.73,2.94,7.23,4.19l7.38,3.87c4.93,2.52,9.6,5.36,14.66,7.52,4.93,2.35,9.79,4.72,14.6,7.12,4.98,2.08,9.91,4.18,14.77,6.32,4.79,2.29,9.88,3.87,14.76,5.79l7.33,2.82c2.4,1.01,4.96,1.62,7.42,2.46,4.96,1.54,9.82,3.3,14.72,4.77,4.93,1.27,9.81,2.58,14.64,3.94,1.21.33,2.4.71,3.63,1.01l3.72.77,7.39,1.6,7.33,1.68c2.47.46,4.99.8,7.46,1.23l7.42,1.28c2.47.41,4.89.99,7.42,1.18,5,.56,9.97,1.17,14.92,1.83,2.46.42,4.99.45,7.48.65l7.48.56c2.49.18,4.96.46,7.45.61l7.48.16,7.46.25,3.72.16c1.24.02,2.48-.06,3.73-.08,4.97-.13,9.92-.21,14.87-.22,4.94-.2,9.86-.69,14.79-.93,2.45-.2,4.94-.14,7.37-.5l7.32-.87c9.84-.76,19.37-2.76,29.07-4.09,9.43-2.22,19.09-3.77,28.31-6.56l7.03-1.79c2.38-.52,4.56-1.47,6.87-2.16,4.53-1.54,9.21-2.81,13.73-4.4,4.42-1.76,8.89-3.46,13.41-5.1,1.12-.43,2.3-.77,3.37-1.27l3.23-1.49,6.53-2.91c34.45-14.94,68.39-38.37,101.41-68.26,33.37-29.7,64.9-65.74,97.11-105.18,32.25-39.34,65.31-82.03,103.04-123.28,1.07,55.77-2.61,110.22-14.42,164.84-11.75,54.43-31.87,109.19-62.99,160.89-7.9,12.84-16.48,25.47-25.77,37.81-9.43,12.26-19.44,24.3-30.38,35.8-11,11.44-22.54,22.63-35.14,32.94-3.04,2.67-6.35,5.12-9.63,7.6l-9.89,7.39-9.99,7.31-10.39,6.6-10.48,6.52-5.27,3.23c-1.76,1.08-3.59,1.96-5.39,2.94-7.23,3.84-14.52,7.62-21.85,11.33-7.39,3.53-14.95,6.59-22.48,9.81-3.79,1.52-7.52,3.29-11.37,4.57l-11.54,3.98c-15.36,5.6-31.12,9.36-46.88,13.3-15.87,3.01-31.78,6.18-47.82,7.57l-12.02,1.26c-4.01.46-8.02.47-12.03.7-8.02.3-16.06.74-24.07.75-8.01-.17-16.03-.41-24.03-.7-2-.09-4-.12-6-.26l-5.98-.55-11.94-1.17-11.92-1.26c-3.96-.55-7.89-1.25-11.84-1.9l-11.8-2.03c-3.92-.72-7.87-1.29-11.74-2.3-7.78-1.83-15.53-3.72-23.26-5.66-3.88-.88-7.67-2.2-11.48-3.36l-11.4-3.63c-3.79-1.24-7.58-2.42-11.33-3.75l-11.15-4.38-11.09-4.46-5.52-2.26c-1.82-.79-3.62-1.7-5.42-2.55-7.21-3.45-14.37-6.95-21.48-10.49-6.99-3.71-13.73-7.76-20.53-11.69-3.36-2.03-6.82-3.87-10.05-6.09l-9.73-6.53c-6.42-4.43-12.98-8.61-19-13.51-6.13-4.75-12.2-9.53-18.2-14.34-5.78-5.1-11.5-10.22-17.15-15.36-5.73-5.06-10.88-10.74-16.19-16.16l-7.85-8.23c-2.62-2.72-4.98-5.7-7.46-8.55-4.86-5.78-9.79-11.45-14.4-17.35-4.51-6.01-8.95-12.02-13.31-18.04-16.97-24.5-31.58-50.14-43-76.9-11.28-26.84-19.82-54.42-25.06-82.39-5-28.07-6.86-56.37-5.35-84.17Z"/>
          </g>
        </g>
      </g>
    </g>
  </g>
</svg>