<svg xmlns="http://www.w3.org/2000/svg" viewBox="0 0 31.78 31"><defs></defs><title>Asset 14</title><g id="Layer_2" data-name="Layer 2"><g id="Layer_1-2" data-name="Layer 1"><g id="Text_Container" data-name="Text Container"><g id="About_Container" data-name="About Container"><path class="cls-1" d="M15.89,0a15.89,15.89,0,0,0-5,31c.79.15,1.08-.34,1.08-.76s0-1.63,0-3c-4.42,1-5.35-1.88-5.35-1.88a4.24,4.24,0,0,0-1.77-2.32c-1.44-1,.11-1,.11-1a3.34,3.34,0,0,1,2.44,1.64A3.37,3.37,0,0,0,12,25a3.43,3.43,0,0,1,1-2.12c-3.53-.4-7.24-1.77-7.24-7.86A6.13,6.13,0,0,1,7.39,10.8a5.76,5.76,0,0,1,.15-4.21s1.34-.43,4.37,1.63a15.21,15.21,0,0,1,8,0c3-2.06,4.37-1.63,4.37-1.63a5.72,5.72,0,0,1,.16,4.21A6.16,6.16,0,0,1,26,15.06c0,6.11-3.72,7.45-7.26,7.85a3.79,3.79,0,0,1,1.08,2.94c0,2.12,0,3.83,0,4.36s.29.92,1.09.76a15.89,15.89,0,0,0-5-31Z"/></g></g></g></g></svg>