<?xml version="1.0" encoding="UTF-8"?>
<svg id="Layer_2" data-name="Layer 2" xmlns="http://www.w3.org/2000/svg" viewBox="0 0 1241.93 493.79">
  <defs>
    <style>
      .cls-1 {
        fill: #125566;
        stroke-width: 0px;
      }
    </style>
  </defs>
  <g id="Mask">
    <g id="Mask-2" data-name="Mask">
      <path class="cls-1" d="M149.17,42.95c-3.43-1.24-6.47-3.39-10.14-4.12-11.72-2.34-23.12-5.83-34.42-9.64-6.73-2.27-14.07-2.72-20.25-6.69-.68-.44-1.58-.5-2.41-.61-5.44-.72-10.62-2.36-15.75-4.23-2.81-1.02-5.67-2.2-8.72-1.66-2.97.53-5.74.26-8.45-.99-2.56.99-5.67-.91-6.99-.54-3.25.91-1.74-1.41-2.37-2.11-2.65-3-6.31-4.49-9.96-5.16-7.2-1.33-14.1-3.49-21-5.83C5.96.43,3.09-.82.08.74.08,163.52.09,326.29,0,489.07c0,3.54.46,4.72,4.46,4.72,410.99-.12,821.99-.12,1232.98,0,3.97,0,4.48-1.14,4.48-4.71-.1-143.78-.08-287.57-.08-431.35-.99-1.08-2.32-1.51-3.64-1.22-7.5,1.66-15.28,1.29-22.73,2.69-10.68,2.01-21.38,3.79-32.18,4.89-8.24.84-16.53,1.41-24.74,2.45-6.77.86-13.78-.2-20.28,2.01-5.31,1.8-10.76,2.05-16.16,2.54-17.13,1.56-34.06,4.39-50.98,7.32-4.7.81-9.39,2.02-14.09,2.36-14.71,1.07-29.44,2.08-44.01,4.35-3.54.55-7.31.08-10.65,1.62-3.85,1.77-8.01,3.28-12.03,2.99-10.48-.75-19.49,4.77-29.48,6.32-7.43,1.16-15.16,3.13-22.68,4.62-11.75,2.32-23.39,5.13-35.06,7.74-5.96,1.33-12.45.15-17.91,3.76-.28.19-.4.14-.45-.13-.82-3.98-1.93-2.95-3.1-.17-.29.7-.24,1.26-1.47,1.32-3.29.17-6.5,1.16-9.72,1.81-7.62,1.53-15.46,2.93-22.62,5.77-8.96,3.56-18.7,4.98-27.13,9.92-.84.5-1.94.39-2.94.46-6.16.46-12.07,2.14-18.03,3.62-5.66,1.41-10.82,4.36-16.48,5.62-11.99,2.66-23.84,5.89-35.83,8.5-8.44,1.84-16.82,4.6-25.31.25-.57-.29-1.31-.07-1.92.29-.26.79-.68,1.08-1.37.44-7.99-3.04-17.01-.95-24.85-4.89-1.18-.59-2.64-.24-3.94-.44-6.66-1.02-13.44-.09-20.1-2.8-4.71-1.92-9.72-4.11-15.49-3.15-5.6.93-11.53-.71-16.2-3.46-4.99-2.94-3.83.28-3.87,2.48.39-.31.1-1.31-.24-1.5-3.5-1.93-8.03-1.8-10.72-5.44-.31-.42-1.21.25-1.83.47-4.32,1.51-8.52,1.71-13.04.17-6.92-2.37-7.15-2.01-7.1,5.58-.06-7.33-.84-8.09-8.44-8.17-3.24.38-6.69.93-9.72.27-4.83-1.06-10.76,1.28-14.37-4.09-1.22-1.61-2.87-2.12-4.83-2-5.92.35-11.34-1.03-16.07-4.74-1.37-1.08-2.73-1.41-3.74.39-.53.95-1.14.75-2.01.69-9.81-.7-19.52-3.24-28.48-6.35-8.94-3.1-18.48-5.25-26.88-10.08-1.97-1.13-4.48-1.31-6.6-2.11-4.11-1.55-8.53-.26-12.65-2.51-5.51-3.01-11.52-5.5-17.62-6.81-13.06-2.82-25.19-8.35-37.96-11.99-12.94-3.68-25.82-7.13-39.29-8.46-12.71-1.26-25.48-2.01-38.14-3.78-3.52-.49-8.74-2-17.12-2l-168.39-22.18Z"/>
    </g>
  </g>
</svg>