<svg xmlns="http://www.w3.org/2000/svg" viewBox="0 0 30 30"><defs><style>.cls-1{fill:#666;} .cls-1:hover{fill:#eee;}</style></defs><title>Asset 13</title><g id="Layer_2" data-name="Layer 2"><g id="Layer_1-2" data-name="Layer 1"><g id="Text_Container" data-name="Text Container"><g id="About_Container" data-name="About Container"><path class="cls-1" d="M26.94,0H3.06A3.06,3.06,0,0,0,0,3.06V26.94A3.06,3.06,0,0,0,3.06,30H26.94A3.06,3.06,0,0,0,30,26.94V3.06A3.06,3.06,0,0,0,26.94,0ZM9.3,24.29h-4v-13h4Zm-2-14.55a2,2,0,0,1-2.09-2,2,2,0,0,1,2.15-2,2,2,0,1,1-.06,4ZM24.83,24.29h-4V17.11c0-1.67-.58-2.81-2-2.81a2.21,2.21,0,0,0-2.06,1.51,2.77,2.77,0,0,0-.14,1v7.47h-4V15.46c0-1.61-.06-3-.11-4.13h3.5l.18,1.8h.08a4.65,4.65,0,0,1,4-2.09c2.65,0,4.64,1.77,4.64,5.59v7.66Z"/></g></g></g></g></svg>